<?xml version="1.0" standalone="no"?>
<!DOCTYPE svg PUBLIC "-//W3C//DTD SVG 20010904//EN"
 "http://www.w3.org/TR/2001/REC-SVG-20010904/DTD/svg10.dtd">
<svg version="1.0" xmlns="http://www.w3.org/2000/svg"
 width="640.000000pt" height="640.000000pt" viewBox="0 0 640.000000 640.000000"
 preserveAspectRatio="xMidYMid meet">
<metadata>
Created by potrace 1.14, written by Peter Selinger 2001-2017
</metadata>
<g transform="translate(0.000000,640.000000) scale(0.100000,-0.100000)"
fill="#000000" stroke="none">
<path d="M0 4599 l0 -1800 42 -19 c24 -10 60 -22 81 -25 21 -4 41 -14 44 -21
3 -8 9 -12 13 -9 4 2 15 -4 25 -15 16 -18 16 -20 2 -20 -10 0 -17 -5 -17 -11
0 -5 5 -7 11 -3 7 4 10 1 7 -7 -3 -8 -15 -13 -27 -13 -12 1 -20 -4 -18 -10 2
-6 10 -11 18 -11 9 0 14 -11 13 -32 -1 -23 2 -30 12 -26 8 3 11 9 8 14 -3 5
-1 9 5 9 6 0 15 -8 20 -19 7 -12 26 -20 60 -25 29 -4 51 -12 55 -21 3 -8 14
-15 25 -15 11 0 25 -9 31 -19 14 -28 13 -36 -5 -21 -8 7 -27 10 -42 7 -16 -4
-22 -4 -16 -1 17 8 16 24 -1 24 -8 0 -16 7 -20 15 -8 21 -26 19 -26 -2 -1 -16
-2 -16 -13 2 -7 11 -19 21 -27 23 -8 2 -17 8 -18 13 -2 5 -8 9 -13 9 -5 0 -2
-15 6 -33 10 -19 11 -26 3 -17 -11 13 -38 17 -85 11 -7 0 -13 -7 -13 -15 0
-18 47 -51 148 -101 29 -14 56 -33 59 -41 3 -7 10 -14 15 -14 6 0 30 -13 54
-30 24 -16 61 -34 81 -39 40 -11 98 -10 109 2 3 3 20 3 37 0 21 -4 28 -3 23 5
-4 7 -16 12 -27 12 -11 0 -22 7 -26 16 -3 8 -16 20 -30 25 -13 5 -28 19 -33
31 -5 13 -9 19 -9 14 -2 -17 -31 17 -31 36 0 10 -4 16 -10 13 -5 -3 -12 6 -16
20 -3 14 -12 25 -19 25 -7 0 -15 9 -18 20 -3 12 -11 18 -19 15 -7 -3 -18 5
-23 17 -6 13 -17 22 -24 20 -8 -2 -11 3 -8 11 3 8 -4 22 -15 32 -17 14 -22 15
-30 4 -7 -10 -8 -8 -5 9 3 12 1 22 -5 22 -6 0 -8 6 -5 14 4 9 -2 12 -19 10
-13 -1 -24 2 -24 8 0 6 7 8 15 4 8 -3 15 -2 15 3 0 5 -15 12 -33 16 -22 5 -26
9 -15 12 20 5 24 28 7 39 -8 5 -7 10 4 16 9 5 14 15 10 24 -7 18 -27 13 -29
-7 -5 -65 -5 -66 -15 -34 -8 28 -5 33 39 72 26 23 58 47 72 54 14 6 33 15 42
20 31 16 63 10 121 -22 31 -17 57 -28 57 -26 0 7 -282 167 -351 200 -31 15
-69 41 -83 58 -14 17 -26 27 -26 22 0 -5 5 -14 12 -21 8 -8 8 -12 1 -12 -18 0
-53 69 -69 138 -14 58 -13 66 1 82 18 20 87 40 138 40 19 0 58 -8 88 -18 235
-80 252 -88 349 -151 80 -52 102 -62 117 -57 7 3 19 -3 25 -14 7 -11 21 -20
31 -20 10 0 16 -3 13 -8 -2 -4 14 -16 36 -27 22 -11 47 -30 55 -42 9 -13 20
-23 26 -23 5 0 3 8 -6 18 -13 14 -18 46 -23 128 -3 60 -14 152 -24 204 -10 52
-28 147 -40 210 -12 63 -33 167 -47 230 -41 183 -42 169 16 223 27 26 54 47
58 47 21 -2 90 -108 152 -235 74 -151 119 -274 151 -406 23 -98 44 -407 30
-442 -5 -12 -9 -16 -9 -9 -1 7 -6 10 -12 6 -8 -4 -8 -9 0 -17 18 -18 13 -31
-6 -16 -15 12 -16 12 -10 -4 4 -10 3 -16 -2 -13 -5 3 -14 -1 -21 -9 -9 -10 -9
-15 -1 -15 6 0 11 -4 11 -10 0 -5 -9 -10 -20 -10 -27 0 -25 15 6 56 29 37 26
46 -5 15 -11 -11 -17 -22 -14 -25 4 -3 1 -6 -5 -6 -7 0 -12 -7 -12 -17 0 -14
-3 -14 -22 3 -13 10 9 -14 49 -54 40 -41 76 -71 82 -68 5 4 12 -2 16 -13 3
-10 32 -42 64 -70 64 -55 211 -243 211 -269 0 -8 3 -12 7 -9 7 8 36 -31 40
-52 1 -7 7 -19 13 -25 9 -8 11 -6 5 12 -6 22 -6 22 21 -3 15 -14 32 -25 37
-25 6 0 19 -7 29 -17 11 -9 18 -11 18 -5 0 7 -9 17 -20 24 -11 7 -20 18 -20
25 0 6 -5 13 -11 15 -6 2 -12 16 -12 31 0 15 -2 25 -6 23 -6 -4 -11 26 -14 84
-2 24 0 25 58 23 89 -3 122 -11 151 -38 15 -14 34 -25 43 -25 14 0 14 2 1 10
-13 8 -13 10 1 10 9 0 19 -9 22 -19 2 -10 14 -24 26 -31 20 -10 21 -10 9 9 -6
11 -16 17 -20 15 -4 -3 -8 0 -8 5 0 6 3 11 6 11 8 0 379 -186 429 -215 48 -29
101 -82 91 -92 -4 -4 -11 -1 -16 7 -6 8 -10 10 -10 5 0 -6 5 -16 11 -22 13
-13 3 -36 -12 -28 -5 4 -9 0 -9 -7 -1 -7 -7 1 -15 17 l-13 30 2 -32 c2 -23 0
-30 -10 -26 -8 3 -14 15 -14 27 0 11 -5 28 -10 36 -8 12 -10 10 -11 -10 0 -14
-3 -19 -6 -12 -2 6 -9 10 -13 7 -5 -3 -7 -12 -4 -19 3 -7 -2 -16 -11 -20 -9
-3 -13 -2 -10 4 3 6 -1 20 -9 32 -9 12 -16 17 -16 10 0 -8 -5 -10 -12 -6 -9 5
-8 2 1 -9 8 -10 11 -20 7 -24 -3 -3 -6 0 -6 8 0 12 -2 11 -11 -1 -9 -13 -10
-12 -5 2 3 10 -2 25 -12 34 -12 13 -13 19 -4 22 6 2 12 16 11 30 l-1 27 -8
-25 c-4 -14 -8 -18 -9 -10 -1 9 -11 16 -24 17 -12 0 -16 -1 -9 -4 14 -6 16
-29 2 -38 -5 -3 -8 0 -5 7 3 7 -3 18 -14 25 -17 11 -19 8 -20 -25 -1 -20 -4
-48 -6 -62 -2 -14 -4 -30 -4 -37 -1 -6 -29 -25 -63 -41 l-62 -29 -42 46 c-41
45 -42 45 -39 17 2 -16 8 -33 14 -39 14 -14 14 -37 1 -37 -5 0 -10 7 -10 15 0
9 -9 15 -22 15 -17 0 -19 -3 -9 -9 8 -5 9 -11 3 -15 -14 -8 -43 4 -36 15 3 5
1 9 -5 9 -5 0 -11 -5 -13 -11 -6 -19 -38 3 -38 27 0 20 -2 23 -13 12 -10 -9
-12 -22 -6 -47 4 -20 7 -36 6 -36 -1 -1 -18 -11 -37 -23 -29 -17 -49 -20 -118
-19 -71 2 -82 0 -82 -15 0 -9 5 -18 12 -20 20 -7 -34 -48 -58 -44 -17 3 -21 0
-17 -13 2 -10 -3 -23 -12 -31 -13 -11 -15 -10 -10 2 4 11 0 14 -17 12 -13 -1
-29 -3 -36 -3 -7 -1 -10 -6 -6 -13 4 -7 3 -8 -5 -4 -6 4 -23 0 -37 -9 -13 -9
-29 -13 -34 -10 -5 3 -18 1 -29 -4 -13 -8 -36 -8 -73 -1 -36 7 -54 7 -56 0 -2
-5 -12 -10 -23 -10 -12 0 -16 5 -13 15 4 8 10 12 15 9 5 -3 9 -2 9 3 0 8 27
42 75 96 31 34 32 43 3 23 -24 -17 -58 -21 -58 -7 0 17 -82 33 -102 19 -9 -5
-7 -8 6 -8 19 0 19 0 1 -13 -12 -10 -14 -16 -7 -21 7 -4 12 -3 12 2 0 5 7 9
15 9 12 0 11 -5 -5 -22 -23 -24 -23 -43 0 -63 11 -10 12 -12 1 -6 -11 5 -13 3
-8 -10 4 -10 3 -15 -3 -11 -6 4 -17 0 -25 -9 -18 -17 -20 -30 -3 -20 7 4 8 3
4 -4 -5 -8 -13 -9 -26 -2 -13 7 -21 6 -30 -5 -14 -16 -80 -16 -80 0 0 6 -18
30 -40 53 -22 24 -40 48 -40 53 0 6 -5 7 -12 3 -8 -5 -9 -2 -5 10 4 10 3 15
-3 11 -6 -4 -18 1 -27 10 -12 12 -18 13 -23 5 -5 -9 -9 -9 -14 -1 -12 19 -24
12 -19 -11 3 -13 2 -20 -2 -16 -5 4 -14 3 -22 -3 -17 -14 -17 2 -1 21 11 12
10 12 -7 0 -11 -8 -28 -23 -38 -35 -10 -11 -16 -14 -12 -7 3 6 1 12 -4 12 -6
0 -11 -7 -11 -15 0 -9 -9 -15 -25 -15 -14 0 -25 -4 -25 -10 0 -5 -5 -10 -11
-10 -5 0 -8 4 -4 9 3 5 1 13 -5 16 -6 4 -9 3 -8 -2 8 -22 -60 -8 -80 16 -11
13 -12 13 -6 1 6 -11 2 -10 -13 3 -11 9 -26 17 -35 17 -8 0 -18 3 -21 7 -4 3
-19 8 -34 9 -14 2 -29 8 -33 15 -6 8 -11 6 -17 -6 -7 -11 -13 -14 -17 -7 -4 6
-14 8 -24 5 -15 -6 -15 -4 2 15 11 12 16 22 12 22 -3 0 1 11 10 25 30 46 159
109 248 121 42 6 88 46 60 52 -8 2 -14 9 -13 15 3 28 -2 39 -16 33 -8 -3 -15
-1 -15 5 0 5 -6 16 -12 23 -11 11 -17 9 -36 -13 -14 -16 -20 -19 -16 -8 5 15
3 16 -20 7 -18 -6 -26 -6 -26 1 0 6 -4 7 -10 4 -5 -3 -10 -2 -10 3 0 12 44 52
58 52 7 0 12 5 12 10 0 6 -7 10 -16 10 -19 0 -74 -58 -74 -78 0 -7 -4 -11 -8
-8 -19 12 -36 -15 -37 -58 0 -50 -5 -55 -32 -28 -36 35 -67 57 -58 42 5 -10 5
-12 -3 -5 -6 6 -12 16 -14 23 -2 7 -20 31 -41 53 -21 23 -34 45 -31 52 4 7 4
9 -1 5 -7 -7 -73 85 -107 152 -10 19 -16 26 -12 15 3 -11 8 -31 10 -44 3 -13
10 -33 15 -43 14 -26 5 -33 -37 -29 l-34 3 2 -198 3 -198 90 -33 c90 -34 146
-40 67 -8 -24 10 -41 20 -38 22 2 3 31 -7 63 -21 32 -14 112 -37 178 -52 66
-14 131 -32 145 -39 14 -7 52 -18 85 -24 33 -6 85 -18 115 -26 30 -8 96 -24
145 -36 50 -12 95 -26 102 -31 6 -5 17 -8 25 -7 21 3 118 -13 118 -20 0 -14
91 -31 109 -22 11 6 29 7 47 1 27 -9 27 -9 4 -9 -53 2 -53 -4 0 -11 30 -4 111
-15 180 -24 68 -10 146 -16 171 -14 26 2 45 0 43 -3 -5 -9 54 -4 63 5 3 3 13
6 22 5 12 0 11 -3 -4 -9 -13 -6 -4 -7 27 -3 25 3 172 1 325 -6 299 -11 519
-19 731 -26 73 -2 137 -7 142 -10 4 -3 10 1 13 7 3 10 8 10 18 2 18 -13 69
-17 69 -5 0 5 -8 11 -17 14 -10 2 -2 4 17 4 19 0 29 -2 23 -4 -34 -12 -4 -18
74 -15 64 2 84 0 73 -7 -11 -8 -4 -10 27 -8 34 3 40 1 32 -10 -6 -7 -14 -12
-17 -11 -18 2 -33 -3 -29 -9 3 -5 -7 -9 -21 -10 -59 -4 -117 -10 -117 -13 0
-7 -91 -12 -425 -26 -193 -8 -207 -8 -328 -1 -86 5 -112 3 -109 -6 2 -7 14
-11 25 -11 14 1 22 -5 23 -15 0 -10 2 -11 6 -3 2 6 9 12 15 12 7 0 6 -5 -1
-14 -6 -7 -22 -11 -36 -8 -28 5 -35 -14 -8 -21 14 -4 12 -5 -4 -6 -17 -1 -23
5 -23 19 0 25 -45 28 -54 3 -5 -12 -9 -14 -18 -5 -16 16 -28 15 -28 0 0 -7 11
-18 25 -25 14 -6 23 -7 19 -2 -12 20 14 7 34 -16 20 -23 50 -27 37 -4 -4 5 2
9 11 9 10 0 14 -3 11 -7 -4 -3 1 -15 10 -26 17 -19 17 -20 -4 -8 -17 8 -25 8
-35 -2 -7 -8 -19 -12 -27 -9 -8 3 -11 0 -7 -6 3 -6 1 -12 -4 -14 -6 -2 -12
-13 -13 -25 -1 -16 -4 -19 -13 -12 -7 6 -21 9 -31 7 -15 -2 -17 3 -15 29 2 19
-1 33 -7 33 -6 0 -11 -5 -11 -11 0 -5 -5 -7 -10 -4 -8 5 -8 11 -1 19 13 15 4
27 -15 19 -19 -7 -6 -63 20 -85 18 -15 18 -17 4 -18 -9 0 -18 -3 -21 -7 -2 -5
-3 -3 -1 3 3 14 -34 37 -46 29 -6 -4 -10 -1 -10 4 0 6 -4 11 -10 11 -5 0 -10
-7 -10 -15 0 -17 -9 -19 -29 -6 -7 5 -11 14 -7 20 5 7 1 9 -8 5 -24 -9 -19
-32 11 -49 l28 -15 -29 6 c-19 5 -27 3 -23 -3 9 -15 -17 -23 -34 -11 -12 8
-11 9 1 5 10 -3 16 2 16 14 0 11 -6 19 -14 19 -7 0 -10 -4 -7 -10 3 -5 -1 -10
-9 -10 -20 0 -30 17 -14 23 10 4 10 6 0 6 -7 1 -15 -5 -18 -13 -3 -8 -12 -12
-20 -9 -8 3 -14 2 -13 -3 5 -27 -2 -33 -23 -24 -13 5 -44 12 -70 15 -26 3 -50
10 -53 16 -4 5 -11 9 -17 9 -6 0 -5 -6 3 -16 11 -13 9 -14 -14 -9 -18 5 -27 3
-27 -5 0 -9 11 -11 33 -7 19 3 40 2 47 -3 12 -7 4 -8 -72 -11 -22 -1 -77 9
-88 16 -5 3 -10 1 -10 -4 0 -6 -7 -11 -15 -11 -8 0 -15 -4 -15 -9 0 -5 -20 -9
-45 -8 -25 1 -45 5 -45 10 0 4 -9 2 -20 -5 -15 -10 -22 -10 -28 -2 -4 7 -35
15 -69 18 -34 3 -70 9 -79 13 -12 4 -15 3 -10 -5 4 -7 1 -12 -8 -12 -8 0 -18
5 -21 10 -3 6 -12 10 -18 9 -9 0 -9 -2 1 -6 6 -2 12 -8 12 -13 0 -15 -155 26
-245 65 -16 7 -73 27 -125 43 -52 17 -112 37 -132 46 -57 24 -46 10 20 -24 31
-17 50 -29 42 -27 -9 3 -24 -1 -35 -9 -10 -8 -42 -14 -69 -14 -61 0 -91 -14
-56 -25 30 -10 7 -25 -38 -25 -18 0 -31 -4 -28 -8 2 -4 -7 -8 -21 -7 -14 0
-28 -5 -30 -11 -4 -11 -1 -12 57 -18 50 -6 81 -17 74 -27 -3 -5 3 -9 12 -9 10
0 15 -3 11 -6 -3 -3 -56 -7 -119 -10 -62 -2 -117 -4 -123 -4 -5 -1 -22 1 -37
4 -16 4 -28 2 -28 -4 0 -5 -5 -10 -11 -10 -5 0 -7 5 -4 10 3 6 -1 10 -10 10
-9 0 -13 -5 -9 -11 4 -8 1 -8 -13 -1 -10 6 -78 12 -151 14 l-132 3 0 -32 c0
-23 5 -33 15 -33 8 0 15 5 15 10 0 17 48 11 60 -7 11 -17 11 -17 6 -1 -6 19 2
20 296 22 53 0 95 3 92 7 -2 4 0 11 6 14 6 4 9 1 8 -5 -2 -7 10 -14 27 -16 22
-2 26 -1 15 6 -9 6 -10 10 -3 10 6 0 15 -4 18 -10 3 -5 13 -10 21 -10 9 0 12
5 8 11 -5 8 -1 8 13 0 14 -7 24 -7 33 2 8 8 11 8 7 1 -5 -8 7 -12 36 -11 82 1
117 -3 117 -14 0 -6 -12 -8 -30 -6 -18 3 -34 0 -41 -9 -6 -8 -16 -14 -22 -14
-6 0 -2 7 9 16 10 8 12 12 4 8 -8 -4 -29 -7 -47 -6 -21 2 -33 -2 -33 -10 0 -9
-3 -9 -12 0 -8 8 -15 9 -25 1 -9 -9 -13 -8 -13 0 0 7 -5 9 -10 6 -25 -15 -5
-25 49 -22 33 1 57 -1 54 -5 -2 -5 6 -4 19 0 25 8 75 7 115 -3 16 -4 22 -2 18
5 -3 5 -1 10 4 10 6 0 11 -6 11 -12 0 -10 3 -9 9 1 6 9 11 10 15 2 4 -6 12 -9
17 -6 5 4 9 1 9 -4 0 -6 -10 -11 -22 -11 -19 0 -20 -2 -8 -10 13 -8 13 -10 -2
-10 -9 0 -20 5 -23 10 -5 8 -11 7 -20 0 -10 -8 -19 -8 -34 -1 -22 12 -80 11
-87 -1 -3 -5 -11 -5 -17 -2 -7 4 -9 4 -5 0 10 -12 -15 -34 -30 -28 -11 4 -11
6 -1 13 7 4 -4 6 -26 4 -23 -2 -50 3 -62 11 -13 8 -23 10 -23 5 0 -5 9 -13 20
-16 11 -3 20 -14 19 -23 0 -9 -3 -12 -5 -7 -3 7 -27 9 -63 5 -38 -4 -57 -2
-55 5 2 5 18 10 34 11 30 1 48 10 39 19 -3 2 -121 8 -262 11 l-256 7 0 -71 c0
-40 5 -72 10 -72 5 0 9 -5 9 -11 0 -5 -4 -7 -10 -4 -7 4 -10 -140 -10 -424 l0
-431 3200 0 3200 0 0 539 c0 505 -1 540 -17 544 -17 4 -17 5 0 6 9 0 17 5 17
10 0 12 -37 24 -50 16 -5 -3 -10 -1 -10 4 0 10 20 15 48 12 6 -1 12 3 12 9 0
6 -5 8 -10 5 -6 -3 -10 -1 -10 5 0 6 -17 9 -44 7 -25 -2 -43 0 -40 5 3 4 27 8
55 8 47 0 49 1 49 28 0 16 -9 37 -20 47 -19 17 -21 17 -40 0 -11 -10 -20 -13
-20 -7 0 7 -6 12 -14 12 -8 0 -22 7 -31 17 -13 13 -19 13 -25 4 -6 -10 -9 -10
-15 -1 -5 8 -12 6 -26 -6 -17 -15 -19 -16 -14 -2 7 19 -8 19 -43 0 -18 -11
-23 -10 -27 1 -8 19 -115 20 -159 2 -60 -25 -40 -7 32 29 110 56 252 145 330
208 l72 59 0 129 0 128 -77 -24 c-43 -13 -82 -23 -86 -21 -5 1 30 15 77 30
l86 28 0 751 c0 723 -1 750 -19 734 -9 -9 -23 -16 -30 -16 -7 0 -9 -5 -6 -10
3 -6 -4 -14 -17 -19 -13 -6 -17 -10 -10 -10 7 -1 10 -6 7 -11 -4 -6 -11 -8
-16 -5 -5 3 -22 -7 -38 -24 -16 -16 -37 -31 -48 -33 -10 -2 -20 -6 -23 -9 -20
-26 -99 -76 -107 -68 -11 11 -43 1 -43 -13 0 -5 9 -6 20 -3 28 9 26 -19 -2
-32 -28 -14 -60 -26 -71 -27 -4 -1 -22 -13 -41 -28 -29 -23 -35 -35 -35 -65 0
-21 -4 -52 -9 -69 -6 -19 -6 -37 0 -47 5 -10 5 -17 1 -17 -5 0 -7 -15 -5 -33
3 -29 -1 -37 -28 -54 -26 -16 -39 -19 -73 -12 -60 12 -65 11 -63 -7 0 -9 -4
-19 -10 -21 -7 -2 -11 4 -10 14 1 15 -9 19 -55 23 -47 4 -55 3 -56 -12 -1 -10
4 -17 10 -15 17 3 20 -53 4 -83 -7 -14 -21 -24 -30 -24 -9 1 -14 -3 -10 -9 4
-7 0 -8 -12 -3 -10 4 -21 2 -25 -4 -7 -12 -29 -14 -72 -7 -34 5 -92 52 -83 66
3 6 1 11 -6 11 -6 0 -9 8 -6 20 6 23 -3 26 -21 8 -9 -9 -12 -9 -12 0 0 6 11
19 25 28 14 9 22 20 19 26 -3 5 0 15 6 23 10 12 10 15 0 15 -9 0 -7 6 5 20 9
10 15 26 12 35 -7 16 4 20 17 8 4 -5 29 -13 56 -19 l48 -11 7 51 c4 28 8 69 8
91 2 30 10 48 34 72 37 38 66 47 143 45 220 -6 281 -5 290 4 7 7 3 14 -15 22
-15 7 -24 8 -21 4 3 -5 -10 -9 -29 -9 -19 0 -35 4 -35 9 0 4 -13 8 -29 8 -17
0 -33 5 -37 12 -5 8 0 9 14 6 16 -5 22 -2 22 10 1 15 2 15 11 -1 6 -9 15 -15
20 -12 5 4 6 12 3 18 -4 7 -4 9 1 5 9 -8 35 9 35 22 0 5 -9 6 -20 3 -13 -3
-20 0 -20 9 0 7 8 15 18 16 56 7 69 10 90 21 13 7 21 15 18 18 -3 4 -15 -2
-26 -12 -16 -14 -20 -15 -21 -4 -1 8 -2 19 -4 24 -1 6 -3 16 -3 23 -1 6 -9 12
-18 12 -13 0 -11 5 7 25 13 13 25 20 27 15 2 -5 14 -5 28 1 14 5 36 9 49 9 16
0 23 5 19 13 -2 7 3 13 13 14 10 0 59 5 108 11 50 5 94 8 98 5 5 -3 24 -2 43
1 l34 7 0 1519 0 1520 -1551 0 -1552 0 5 -497 5 -498 44 -22 c46 -25 79 -30
79 -13 0 7 6 8 16 2 9 -5 24 -7 33 -5 26 7 131 -49 131 -69 0 -11 -94 -2 -97
10 -3 7 4 12 16 12 12 0 21 5 21 11 0 5 -3 8 -7 6 -5 -3 -32 -1 -61 3 -40 5
-55 3 -61 -7 -6 -12 -10 -12 -20 1 -8 9 -21 16 -30 16 -9 0 -26 7 -39 15 -20
14 -21 14 -16 0 5 -11 -1 -15 -25 -15 -34 0 -42 19 -11 27 33 9 12 23 -35 23
-24 0 -47 5 -50 10 -9 15 -48 12 -86 -7 l-34 -18 43 -3 c23 -2 42 -8 42 -14 0
-14 -142 0 -155 16 -25 31 -56 39 -99 25 -23 -7 -46 -19 -51 -27 -7 -9 -27
-12 -60 -10 -41 2 -49 6 -47 21 2 14 -4 17 -34 17 -28 0 -35 -3 -30 -15 4 -12
-3 -15 -32 -16 -20 -1 -40 -1 -44 0 -4 0 -32 -8 -63 -20 -52 -19 -75 -19 -75
1 0 5 6 7 13 4 16 -6 83 21 93 37 12 19 -57 2 -73 -19 -10 -12 -16 -14 -19 -4
-8 18 -78 16 -71 -2 6 -15 -29 -54 -39 -44 -3 3 -21 2 -40 -2 -26 -6 -34 -5
-34 6 0 9 11 14 33 14 34 0 66 15 55 25 -3 4 -15 2 -26 -4 -10 -5 -31 -7 -46
-3 l-27 7 30 18 c20 11 66 21 130 26 55 5 104 11 108 14 5 3 28 1 53 -3 35 -7
48 -5 60 6 13 13 9 14 -37 10 -62 -6 -72 9 -13 19 22 4 40 11 40 17 0 6 9 8
20 5 10 -3 24 1 30 8 6 7 27 16 47 20 19 3 43 10 52 15 18 9 122 34 189 45 23
4 42 11 42 16 0 5 8 9 19 9 10 0 24 6 30 14 16 18 51 27 51 13 1 -7 10 -1 20
12 l20 23 2 -63 c3 -100 15 322 17 574 l1 227 -1600 0 -1600 0 0 -1801z m4370
1230 c0 -7 9 -9 21 -6 33 9 245 -11 302 -28 28 -8 63 -15 79 -15 15 0 28 -5
28 -11 0 -6 9 -9 20 -6 11 3 20 2 20 -2 0 -3 29 -12 65 -19 36 -7 85 -21 108
-31 23 -10 62 -26 87 -36 25 -10 59 -23 75 -30 17 -7 47 -16 68 -19 21 -4 41
-14 44 -22 3 -7 14 -14 24 -14 17 0 51 -17 114 -58 11 -6 43 -23 72 -37 28
-14 55 -29 58 -35 3 -5 25 -18 48 -28 23 -11 63 -35 90 -55 26 -21 51 -37 55
-37 11 0 202 -190 202 -201 0 -5 8 -18 18 -28 32 -37 42 -50 42 -61 0 -5 4
-10 10 -10 8 0 110 -197 110 -214 0 -4 9 -27 20 -52 12 -24 18 -49 15 -54 -3
-5 -2 -17 4 -27 5 -10 17 -52 27 -93 16 -62 19 -112 18 -280 -1 -196 -2 -208
-27 -279 -15 -41 -27 -83 -27 -93 0 -10 -4 -26 -9 -36 -5 -9 -22 -42 -36 -72
-15 -30 -31 -57 -34 -60 -4 -3 -20 -32 -36 -64 -29 -57 -121 -166 -141 -166
-5 0 -26 -11 -46 -25 -20 -14 -46 -25 -57 -25 -12 0 -21 -4 -21 -10 0 -5 -8
-10 -17 -10 -16 0 -16 2 -3 11 12 9 12 10 1 7 -27 -7 -22 -24 11 -41 18 -10
24 -15 13 -11 -103 35 -146 52 -161 63 -11 7 -3 -1 16 -18 19 -17 42 -31 52
-31 10 0 18 -5 18 -10 0 -6 4 -9 9 -8 5 2 25 -10 45 -26 31 -25 35 -31 24 -45
-31 -39 -38 -59 -22 -65 20 -8 8 -27 -14 -24 -11 2 -17 -3 -16 -14 1 -13 -3
-15 -23 -7 -21 8 -23 7 -13 -10 8 -16 5 -22 -19 -34 -27 -13 -28 -13 -23 5 4
18 3 19 -17 7 -12 -8 -17 -15 -11 -17 14 -5 12 -38 -3 -50 -10 -8 -13 -5 -12
15 0 15 -7 28 -15 31 -12 4 -13 2 -2 -9 14 -16 16 -33 2 -24 -6 4 -10 -5 -10
-19 0 -16 -6 -26 -14 -26 -8 0 -16 -6 -19 -12 -3 -10 -8 -10 -23 2 -15 11 -16
11 -6 0 18 -21 15 -46 -8 -47 -11 -1 -20 3 -20 9 0 6 -6 6 -15 -2 -18 -15 -20
1 -2 19 10 10 9 11 -5 6 -10 -4 -18 -11 -18 -16 0 -5 -8 -9 -19 -9 -11 0 -22
-10 -25 -22 -7 -22 -7 -22 -16 -3 -7 17 -9 17 -9 3 -1 -10 -8 -18 -16 -18 -9
0 -18 -7 -21 -15 -4 -8 -10 -12 -15 -10 -5 3 -22 -1 -39 -10 -16 -8 -30 -12
-30 -8 0 5 -5 1 -10 -7 -5 -8 -15 -15 -22 -15 -7 0 -17 -10 -23 -23 -7 -15
-16 -21 -28 -18 -14 3 -21 -3 -29 -25 -5 -16 -14 -29 -20 -29 -5 0 -6 5 -3 10
3 5 -1 10 -10 10 -8 0 -18 -7 -22 -16 -3 -8 -11 -13 -18 -10 -14 5 -47 -29
-37 -39 4 -4 2 -6 -3 -4 -15 3 -42 -9 -150 -74 -111 -66 -137 -86 -129 -98 3
-5 0 -9 -5 -9 -6 0 -11 -20 -11 -44 0 -64 -14 -94 -47 -101 -15 -3 -53 -13
-83 -23 l-55 -17 -1 65 c-1 93 -8 115 -45 131 -31 12 -31 13 -11 22 20 9 27
27 24 67 -2 35 52 107 121 161 62 48 181 131 235 164 139 86 163 112 140 151
-4 5 -3 16 3 24 7 12 9 9 10 -10 1 -14 2 -33 1 -42 -3 -31 -19 -39 281 145
135 82 140 86 127 102 -5 6 -7 15 -3 19 4 4 0 4 -10 0 -9 -3 -15 -10 -12 -14
3 -4 -14 -3 -38 2 -23 5 -52 11 -65 13 -32 3 -76 47 -127 127 -49 74 -60 83
-127 92 -40 6 -50 12 -67 42 -12 20 -19 40 -16 45 4 5 1 9 -4 9 -6 0 -11 9
-11 19 0 17 4 18 43 9 23 -6 68 -28 101 -49 63 -42 81 -47 90 -24 6 17 -2 45
-13 45 -4 0 -7 10 -6 22 1 13 -10 32 -27 46 -39 33 -69 78 -73 108 -1 13 -5
27 -8 31 -4 3 -2 14 4 25 13 25 6 33 -18 20 -12 -7 -25 -7 -34 -1 -11 7 -11 9
4 9 9 0 17 5 17 10 0 6 14 4 35 -4 19 -8 35 -11 35 -6 0 13 -32 29 -75 38
l-37 7 20 25 c28 35 41 90 49 196 19 286 -103 558 -327 727 -32 24 -64 40 -77
39 -13 -1 -23 2 -23 8 0 5 -17 12 -37 15 -68 12 -74 15 -67 37 5 17 3 19 -14
14 -14 -5 -25 0 -35 14 -12 18 -89 50 -119 50 -15 0 -8 -19 10 -23 14 -4 13
-5 -4 -6 -13 -1 -24 8 -30 23 -9 24 -10 25 -44 10 -32 -14 -34 -16 -17 -29 12
-9 14 -15 7 -20 -8 -5 -8 -11 1 -21 9 -11 9 -14 0 -14 -7 0 -9 -4 -6 -10 3 -5
1 -10 -5 -10 -7 0 -10 7 -6 15 3 8 -4 21 -16 29 -18 13 -19 18 -8 31 10 13 9
15 -7 15 -10 0 -24 5 -31 12 -8 8 -12 8 -12 1 0 -6 -11 -8 -25 -5 -14 2 -25 8
-25 12 0 4 -15 10 -34 12 -24 3 -32 0 -29 -9 6 -15 -23 -18 -32 -3 -3 6 -1 10
4 10 6 0 10 3 10 8 -4 25 3 30 37 22 19 -5 43 -15 53 -24 19 -18 46 -22 36 -6
-4 6 1 7 12 3 15 -5 16 -4 5 8 -7 8 -16 14 -20 14 -11 1 -125 44 -144 55 -13
7 -16 6 -12 -5 4 -9 -1 -13 -14 -12 -12 0 -18 6 -15 14 5 13 1 14 -77 13 -26
0 -31 2 -20 10 13 9 13 10 0 10 -8 0 -21 -4 -29 -9 -10 -6 -22 -5 -35 5 -11 8
-27 14 -36 14 -13 0 -13 -2 0 -11 11 -8 -5 -9 -59 -5 -44 4 -82 13 -91 21 -19
17 -70 20 -70 5 0 -5 7 -10 15 -10 8 0 15 -7 15 -15 0 -8 -4 -15 -8 -15 -16 0
-40 35 -37 53 2 9 -1 14 -6 11 -6 -3 -17 0 -26 8 -12 9 -15 9 -9 1 10 -18 -4
-16 -52 7 -22 11 -44 20 -48 20 -4 0 1 -9 11 -20 16 -18 16 -20 2 -20 -10 0
-17 4 -17 9 0 7 -58 23 -95 25 -28 2 -32 58 -14 179 10 66 13 74 30 70 10 -3
27 -2 36 2 10 5 28 7 41 6 13 -2 33 4 46 12 13 9 41 19 62 23 21 3 44 10 49
14 10 8 62 15 175 26 36 3 69 10 74 15 6 5 24 9 42 9 17 0 34 6 37 13 4 10 30
14 91 16 48 1 134 8 192 16 58 9 109 13 114 10 5 -3 11 -1 15 5 8 14 35 13 35
-1z m-2070 -429 c0 -5 -5 -10 -11 -10 -5 0 -7 5 -4 10 3 6 8 10 11 10 2 0 4
-4 4 -10z m-40 -19 c0 -8 -99 -61 -114 -61 -4 0 -4 5 -1 10 7 12 3 12 -19 4
-9 -3 -16 -11 -16 -16 0 -13 -41 -47 -57 -48 -16 0 -17 16 -2 25 5 4 14 18 19
31 6 14 21 26 37 30 15 3 48 12 73 19 55 16 80 18 80 6z m715 -11 c20 -22 17
-23 -35 -20 -43 2 -46 5 -30 25 17 21 43 19 65 -5z m215 0 c0 -5 -2 -10 -4
-10 -3 0 -8 5 -11 10 -3 6 -1 10 4 10 6 0 11 -4 11 -10z m-450 -18 c0 -5 -65
-42 -75 -42 -5 0 -16 4 -24 9 -27 17 5 40 55 38 24 -1 44 -3 44 -5z m126 -8
c18 -14 17 -15 -19 -9 -29 5 -42 2 -50 -9 -8 -10 -20 -14 -35 -10 -26 7 -24
27 3 32 10 3 15 0 11 -7 -4 -6 -2 -11 3 -11 6 0 11 4 11 9 0 9 19 17 46 20 5
0 19 -6 30 -15z m160 -9 c-10 -8 -23 -12 -28 -9 -14 9 2 24 25 24 21 -1 21 -1
3 -15z m71 -1 c-3 -3 -12 -4 -19 -1 -8 3 -5 6 6 6 11 1 17 -2 13 -5z m282 -8
c10 -12 8 -17 -11 -26 -22 -11 -22 -10 -4 4 23 19 14 21 -17 5 -28 -15 -38
-30 -32 -50 7 -20 -12 -36 -50 -42 -16 -3 -37 -7 -45 -9 -8 -3 -12 -3 -7 -1
13 8 7 24 -19 48 -15 14 -22 25 -15 25 7 0 23 -12 37 -27 22 -24 26 -25 50
-12 33 17 41 36 26 60 -16 25 -15 27 11 32 45 9 65 7 76 -7z m-1319 0 c0 -8
-57 -63 -83 -81 -24 -15 -26 -20 -13 -27 15 -8 15 -12 0 -40 -11 -22 -13 -33
-5 -41 8 -8 11 -7 11 5 0 8 8 22 17 29 11 10 14 10 9 2 -4 -7 -3 -13 2 -13 11
0 20 30 15 48 -3 6 -9 10 -13 7 -5 -3 -11 -1 -14 4 -6 9 33 24 71 26 15 0 19
-3 13 -9 -6 -6 -3 -14 8 -22 16 -12 15 -14 -5 -29 -13 -9 -23 -22 -23 -28 0
-7 5 -4 11 6 10 18 11 18 25 0 13 -17 13 -17 14 5 0 13 4 20 10 17 6 -4 8 -10
5 -15 -3 -5 -1 -11 5 -15 5 -3 10 -1 10 4 0 6 3 10 8 9 14 -3 61 25 56 33 -3
5 0 9 5 9 6 0 11 -9 11 -20 0 -14 -5 -18 -17 -13 -15 6 -16 4 -6 -9 7 -8 11
-17 9 -19 -2 -2 7 -5 20 -5 13 -1 24 2 24 7 0 5 7 9 16 9 14 0 14 -3 3 -16
-10 -13 -10 -17 1 -24 8 -5 19 -6 25 -2 5 4 18 5 28 4 9 -2 17 2 17 8 0 7 -6
10 -13 7 -6 -2 -18 2 -25 9 -15 17 -14 17 27 3 30 -11 31 -13 16 -29 -15 -17
-14 -18 12 -16 15 1 34 5 41 9 16 11 32 0 33 -21 0 -14 2 -13 9 3 5 11 9 15 9
8 1 -7 8 -10 16 -7 8 4 15 1 15 -5 0 -5 9 -15 19 -21 15 -7 24 -6 38 8 10 9
14 14 9 10 -6 -5 -19 -7 -30 -7 -19 1 -19 2 -2 6 14 4 16 7 6 13 -10 6 36 7
59 1 3 -1 -6 -12 -20 -27 -16 -17 -18 -23 -7 -19 9 4 25 2 35 -3 13 -8 21 -5
35 10 l18 21 0 -24 c0 -14 3 -19 8 -12 10 15 82 13 82 -3 0 -8 9 -11 26 -8 15
3 23 1 20 -5 -4 -5 -2 -12 4 -16 6 -4 8 -11 4 -16 -3 -6 2 -9 12 -7 17 3 19
-4 19 -60 0 -53 3 -65 20 -74 19 -11 19 -10 3 8 -15 17 -16 25 -4 64 12 41 17
46 50 51 29 5 36 3 32 -8 -4 -9 -2 -11 7 -6 19 12 47 14 47 3 0 -6 5 -10 10
-10 6 0 3 11 -7 24 -10 13 -21 22 -24 20 -3 -2 -4 7 -2 20 3 13 0 33 -6 44 -8
16 -7 21 4 26 12 4 15 -3 15 -30 0 -28 3 -35 15 -30 8 3 15 2 15 -2 0 -5 7
-17 16 -28 8 -10 12 -13 8 -5 -5 10 -3 12 7 5 8 -5 22 -7 32 -6 9 2 20 -3 23
-12 3 -8 12 -12 20 -9 8 3 11 9 8 14 -3 5 -10 7 -15 4 -5 -3 -6 1 -3 10 6 14
8 14 19 -2 7 -9 11 -23 8 -30 -6 -16 19 -17 34 -2 8 8 13 5 18 -12 7 -22 8
-22 21 -4 13 17 14 17 14 1 0 -9 4 -15 9 -12 5 4 12 0 15 -6 3 -10 9 -8 19 5
13 16 15 16 21 2 3 -9 2 -13 -3 -10 -5 3 -12 1 -16 -5 -12 -19 26 -23 40 -4 8
11 15 14 15 7 0 -6 -4 -15 -10 -18 -5 -3 -10 -14 -10 -23 0 -15 2 -15 10 -2 7
11 10 11 10 2 0 -7 3 -11 8 -8 4 2 16 -2 27 -10 10 -8 14 -14 9 -14 -6 0 -15
5 -22 12 -9 9 -12 9 -12 0 0 -7 5 -12 11 -12 5 0 7 -4 4 -10 -3 -6 1 -7 9 -4
9 3 16 2 16 -4 0 -5 7 -12 15 -16 8 -3 14 -2 12 2 -1 4 2 7 8 7 5 0 8 -11 6
-24 -2 -16 1 -21 10 -15 9 5 11 2 6 -9 -5 -13 -1 -17 14 -17 16 0 19 4 14 21
-4 11 -4 32 0 47 6 23 8 24 16 10 5 -10 17 -14 29 -11 11 3 27 0 35 -7 10 -8
15 -9 15 -2 0 22 58 -23 64 -48 3 -16 16 -31 31 -38 20 -9 26 -18 22 -32 -3
-12 0 -20 7 -20 15 0 49 -57 41 -70 -3 -6 -2 -10 4 -10 5 0 11 -12 13 -27 l4
-28 13 30 c14 33 7 126 -12 156 -14 23 -11 26 36 34 25 5 37 4 37 -4 0 -6 -6
-11 -14 -11 -20 0 -29 -17 -19 -34 6 -11 13 -12 23 -6 12 8 11 10 -5 10 -16 0
-17 2 -5 10 15 9 33 -7 24 -21 -2 -4 0 -10 6 -14 6 -4 7 -23 3 -47 -4 -28 -3
-39 5 -34 5 3 2 -12 -9 -33 -21 -44 -26 -77 -8 -51 9 13 10 13 6 0 -2 -8 -9
-16 -15 -16 -7 -1 -17 -2 -22 -3 -6 0 -9 -17 -7 -36 4 -32 -1 -39 -24 -37 -3
1 -6 -5 -6 -13 0 -8 5 -11 11 -7 11 7 16 8 36 11 6 0 10 7 10 15 0 8 11 27 24
43 21 26 37 69 37 101 -1 48 -5 61 -15 55 -6 -3 0 6 13 21 17 18 28 23 35 16
15 -15 35 -89 37 -135 1 -23 4 -31 6 -17 2 12 8 22 13 22 12 0 1 92 -15 116
-7 11 -11 34 -9 52 2 20 -1 32 -8 32 -6 0 -9 2 -6 5 3 3 17 -1 32 -9 17 -9 23
-17 16 -21 -8 -5 -7 -11 2 -23 9 -11 10 -16 2 -19 -7 -2 -10 -13 -7 -23 3 -11
9 -17 14 -15 4 3 6 12 3 19 -3 8 -1 17 5 20 5 4 12 -3 16 -14 3 -11 11 -20 17
-20 6 0 9 -3 5 -6 -3 -3 0 -12 6 -19 9 -10 16 -10 27 -1 13 9 13 9 3 -5 -12
-15 -10 -27 13 -91 4 -10 11 -18 16 -18 5 0 6 4 3 10 -3 6 1 7 9 4 19 -7 20
-16 4 -32 -9 -9 -8 -13 5 -18 12 -4 14 -11 7 -29 -5 -13 -6 -26 -2 -30 3 -3
-2 -3 -13 0 -14 4 -13 2 3 -7 18 -9 28 -9 43 0 10 7 19 10 19 8 0 -11 -73
-126 -77 -122 -3 3 2 15 11 28 18 26 20 38 6 38 -5 0 -10 -7 -10 -15 0 -8 -7
-15 -15 -15 -8 0 -14 -3 -14 -7 4 -24 -3 -43 -16 -43 -19 0 -34 28 -27 52 6
25 48 68 58 59 4 -3 5 1 2 9 -3 8 -1 25 3 38 7 17 6 21 -3 16 -8 -5 -9 -2 -4
11 5 15 4 16 -9 5 -8 -7 -13 -16 -10 -20 3 -4 -3 -7 -12 -6 -10 0 -18 -3 -18
-9 -2 -30 -31 -85 -42 -81 -8 4 -13 -3 -13 -18 0 -13 -7 -40 -15 -61 -13 -30
-18 -35 -30 -25 -8 7 -15 9 -16 4 -1 -5 -5 2 -9 16 -7 22 -8 22 -9 4 -1 -18
-7 -20 -48 -20 -27 1 -54 5 -62 10 -10 6 -16 6 -19 -2 -2 -7 -8 -12 -14 -12
-6 0 -7 7 -4 16 7 18 -16 44 -39 44 -13 0 -16 -6 -11 -25 4 -14 2 -25 -4 -25
-5 0 -10 7 -10 15 0 12 -5 13 -17 7 -10 -5 -25 -7 -33 -4 -13 5 -13 3 0 -13
14 -17 13 -17 -9 -10 -19 6 -28 2 -42 -16 -14 -18 -19 -20 -19 -8 0 10 -12 19
-31 23 -40 8 -49 1 -49 -35 0 -37 -16 -38 -23 0 -6 29 -7 29 -67 27 -33 -1
-60 2 -60 6 0 4 -10 4 -22 -1 -17 -6 -29 -2 -51 18 -16 14 -33 25 -38 24 -4
-2 -6 3 -3 10 2 7 -12 32 -33 56 -32 38 -38 41 -44 25 -4 -11 -8 -37 -8 -59 0
-24 3 -33 7 -23 5 12 12 14 21 9 7 -5 11 -14 7 -20 -5 -7 -1 -8 10 -4 11 4 15
2 11 -4 -4 -6 3 -14 16 -17 22 -6 22 -7 -6 -22 -22 -12 -26 -18 -17 -34 5 -10
10 -25 9 -32 0 -7 -5 -2 -11 12 -8 21 -11 22 -17 8 -5 -16 -9 -16 -37 -2 -24
11 -30 20 -27 35 7 25 19 24 26 -2 3 -12 10 -18 16 -15 18 11 -11 47 -44 53
-25 6 -27 7 -10 14 15 6 9 8 -20 8 -37 1 -42 -2 -53 -31 -11 -29 -27 -32 -27
-5 0 7 -7 12 -15 12 -8 0 -14 -6 -13 -12 2 -8 -7 -13 -20 -13 -16 0 -22 -6
-23 -25 -3 -42 -13 -58 -33 -52 -14 3 -17 0 -14 -14 3 -11 11 -15 21 -12 9 4
13 2 9 -4 -4 -6 -1 -13 7 -16 7 -3 16 -15 19 -27 4 -17 3 -19 -9 -9 -11 9 -14
8 -14 -5 0 -10 -4 -14 -10 -11 -5 3 -10 -3 -10 -14 0 -29 -11 -52 -21 -45 -6
3 -17 0 -25 -7 -21 -17 -25 -9 -31 75 -4 54 -10 76 -19 76 -20 0 -17 20 4 36
14 11 19 10 34 -9 16 -19 18 -20 18 -4 0 10 4 16 9 13 5 -3 11 7 14 22 3 15 9
35 12 45 6 14 2 17 -24 17 -31 0 -32 -1 -17 -22 19 -27 21 -50 2 -25 -8 10
-18 17 -22 16 -9 -2 -55 8 -84 18 -12 4 -11 7 5 13 16 7 12 9 -17 9 -40 1 -48
-9 -23 -29 8 -7 15 -25 15 -41 0 -15 5 -31 10 -34 6 -3 10 3 10 15 0 12 4 19
9 16 5 -4 11 0 14 6 2 7 8 10 12 6 4 -4 0 -19 -9 -32 -9 -14 -16 -32 -16 -41
0 -9 -11 -41 -25 -71 -14 -30 -25 -59 -25 -64 0 -5 13 -23 30 -41 16 -18 37
-48 45 -66 21 -45 32 -48 40 -13 4 16 11 33 16 36 6 4 3 14 -7 25 -9 10 -12
19 -7 19 6 0 13 -6 16 -14 4 -9 14 -12 25 -9 29 7 36 -28 19 -85 -8 -26 -15
-75 -16 -109 -1 -53 2 -63 16 -63 25 0 3 -17 -32 -26 -25 -5 -28 -4 -17 7 27
29 0 153 -40 177 -14 8 -33 29 -42 46 l-17 31 7 -35 c11 -65 13 -102 4 -124
-10 -24 -9 -28 -15 64 -3 53 -30 120 -48 120 -9 0 -8 -3 2 -9 10 -7 11 -13 1
-30 -6 -12 -8 -30 -5 -41 4 -12 0 -22 -12 -29 -10 -5 -15 -13 -11 -17 4 -4 0
-13 -10 -20 -15 -12 -11 -14 28 -15 43 -1 44 -2 18 -12 -16 -6 -29 -19 -29
-29 -1 -10 -3 -22 -4 -28 -1 -5 -3 -19 -4 -30 -1 -25 -18 -26 -24 -2 -3 13 -6
10 -11 -10 -5 -16 -12 -28 -18 -28 -5 0 -6 5 -2 12 4 7 3 8 -4 4 -7 -4 -12
-18 -12 -31 0 -13 -7 -31 -16 -40 -24 -23 -12 -28 35 -14 32 10 43 9 56 -1 8
-7 15 -8 15 -3 0 12 38 14 45 2 4 -5 10 -7 15 -4 5 3 35 -8 66 -25 30 -17 77
-35 102 -40 26 -5 67 -13 92 -19 25 -5 46 -6 48 -2 3 10 130 3 165 -9 15 -5
27 -5 27 0 0 4 -4 10 -10 12 -6 2 -6 9 0 18 8 13 13 13 31 2 11 -7 23 -11 26
-8 12 12 60 -64 54 -88 -8 -34 38 -65 119 -80 l35 -6 -3 -59 c-4 -58 -4 -59
-35 -63 -18 -2 -183 -3 -367 -3 -351 1 -499 11 -760 55 -196 33 -213 34 -288
16 -89 -22 -214 -26 -274 -8 -37 10 -49 19 -54 39 -4 13 -9 21 -13 16 -3 -4
-15 -10 -26 -11 -28 -5 -109 -43 -116 -54 -3 -5 -13 -8 -22 -6 -9 2 -22 -6
-30 -16 -8 -10 -17 -15 -20 -9 -10 15 37 103 86 162 43 50 44 55 35 89 -7 26
-7 46 1 68 23 63 39 140 42 194 3 74 5 78 50 90 l39 11 -6 42 c-7 47 -14 61
-14 30 0 -18 -12 -28 -60 -47 -22 -10 -56 -30 -74 -45 -9 -8 -19 -11 -22 -8
-4 3 -13 0 -21 -8 -8 -8 -22 -15 -32 -15 -25 0 -47 -29 -55 -70 -4 -25 -15
-41 -36 -53 -17 -10 -30 -24 -30 -32 0 -27 49 9 65 47 12 31 21 38 52 44 21 4
44 11 51 17 8 6 12 6 12 -2 0 -6 4 -11 10 -11 5 0 6 8 3 17 -6 14 -3 14 20 -3
14 -10 27 -26 27 -34 0 -11 -3 -11 -12 -2 -14 14 -78 16 -78 3 0 -5 -3 -18 -7
-28 -6 -16 -5 -16 10 -4 11 9 17 10 17 2 0 -10 -13 -15 -32 -12 -4 0 -22 -13
-40 -29 -18 -17 -37 -30 -43 -30 -5 0 -23 -7 -39 -15 -25 -13 -27 -13 -22 0 4
10 -1 15 -15 15 -13 0 -18 4 -13 12 5 7 2 9 -9 5 -10 -4 -18 1 -22 13 -9 27
-2 34 44 50 23 7 41 18 41 24 0 6 7 2 15 -8 21 -28 19 -11 -2 21 -10 15 -13
24 -6 20 7 -4 16 0 21 8 5 9 21 24 36 34 l28 19 -26 0 c-14 0 -26 -6 -26 -13
0 -7 -7 -18 -14 -25 -13 -10 -14 -7 -10 17 l5 28 -24 -23 c-14 -13 -27 -20
-30 -15 -5 8 88 93 103 93 4 0 8 33 7 73 0 51 3 71 11 70 7 -2 12 2 12 8 0 6
-8 8 -18 5 -13 -4 -22 5 -38 37 -18 37 -24 42 -54 42 -32 0 -36 4 -79 88 l-46
89 1 101 c1 129 25 254 74 385 41 108 44 112 205 276 86 88 130 123 202 162
64 35 85 32 36 -5 -16 -11 -23 -21 -16 -21 7 0 30 18 51 39 24 24 55 44 83 51
24 7 69 20 99 30 53 17 100 24 100 16z m196 -11 c-26 -19 -42 -19 -26 0 7 8
20 15 29 15 13 -1 13 -3 -3 -15z m724 5 c0 -5 -9 -10 -20 -10 -11 0 -20 5 -20
10 0 6 9 10 20 10 11 0 20 -4 20 -10z m506 -7 c20 -27 17 -32 -11 -20 -14 7
-25 18 -25 25 0 18 21 15 36 -5z m219 -13 c-15 -17 -15 -19 2 -23 10 -3 4 -5
-14 -6 -18 0 -36 -2 -40 -3 -7 -3 -14 33 -7 43 2 4 20 7 40 7 33 0 34 -1 19
-18z m-1525 -10 c-27 -21 -60 -26 -60 -10 0 5 6 7 13 4 7 -2 21 2 32 10 11 9
25 15 30 15 6 1 -1 -8 -15 -19z m1657 -6 c28 -18 34 -18 27 1 -4 9 0 15 10 15
9 0 16 -8 16 -17 0 -15 2 -16 10 -3 7 11 12 12 21 3 16 -16 -35 -24 -122 -21
-66 3 -66 3 -51 25 15 25 46 24 89 -3z m-952 6 l30 -8 -30 0 c-16 0 -41 4 -55
8 l-25 8 25 0 c14 0 39 -4 55 -8z m-115 -8 c0 -4 -12 -9 -26 -10 -14 -1 -31
-5 -37 -9 -9 -5 -63 -8 -84 -3 -5 1 10 7 32 15 45 15 115 19 115 7z m675 -2
c3 -5 16 -10 28 -10 18 0 19 -2 7 -10 -20 -13 -60 -13 -60 0 0 6 -12 10 -27
10 -22 0 -25 2 -13 10 20 13 57 13 65 0z m-520 -30 c22 0 34 -4 30 -10 -3 -5
-17 -10 -30 -10 -13 0 -27 -4 -30 -10 -3 -5 -13 -10 -21 -10 -8 0 -12 5 -9 10
3 6 -1 13 -9 16 -9 3 -13 10 -10 15 3 5 0 9 -5 9 -6 0 -11 5 -11 10 0 6 13 4
30 -5 16 -8 45 -15 65 -15z m1062 14 c-3 -3 -12 -4 -19 -1 -8 3 -5 6 6 6 11 1
17 -2 13 -5z m43 -4 c0 -5 -7 -7 -15 -4 -8 4 -15 8 -15 10 0 2 7 4 15 4 8 0
15 -4 15 -10z m-1912 -29 c-2 -24 -5 -28 -16 -19 -10 9 -11 13 0 19 10 7 10 9
1 9 -7 0 -13 5 -13 10 0 6 7 10 15 10 11 0 15 -9 13 -29z m709 12 c-4 -3 0
-14 8 -23 15 -16 14 -18 -10 -24 -14 -4 -30 -4 -34 -1 -5 2 -11 -4 -14 -15 -3
-11 -17 -25 -31 -32 -22 -9 -29 -9 -41 3 -13 13 -12 19 13 48 16 19 34 32 42
29 8 -2 21 1 28 9 7 7 21 13 29 13 9 0 13 -3 10 -7z m-668 -29 c-14 -13 -16
-13 -16 0 0 8 4 13 9 10 4 -3 8 0 8 7 0 7 3 9 7 5 4 -3 0 -13 -8 -22z m1768
20 c-3 -3 -12 -4 -19 -1 -8 3 -5 6 6 6 11 1 17 -2 13 -5z m81 -2 c9 -6 5 -12
-13 -22 -23 -12 -28 -12 -35 0 -14 23 21 39 48 22z m-429 -20 c7 -14 6 -25 -5
-40 -19 -27 -44 -28 -51 -2 -3 11 -9 17 -14 14 -13 -8 -50 6 -44 17 6 10 40 7
51 -4 13 -13 24 -7 24 13 0 25 26 26 39 2z m-421 -11 c9 -5 2 -10 -24 -14 -45
-8 -57 -1 -23 12 30 12 31 12 47 2z m-798 -5 c0 -2 -7 -7 -16 -10 -8 -3 -12
-2 -9 4 6 10 25 14 25 6z m696 -6 c18 -7 24 -14 17 -21 -12 -12 -63 5 -63 21
0 13 12 13 46 0z m1284 0 c0 -5 -4 -10 -9 -10 -6 0 -13 5 -16 10 -3 6 1 10 9
10 9 0 16 -4 16 -10z m-2064 -12 c4 -7 3 -10 -1 -5 -5 4 -18 1 -30 -7 -18 -12
-22 -12 -22 -1 0 8 3 12 7 10 3 -2 12 0 20 6 19 11 18 11 26 -3z m1908 -12
c55 -9 55 -13 2 -21 -37 -6 -50 -3 -71 13 -22 18 -23 21 -8 24 10 3 23 1 28
-3 6 -4 28 -10 49 -13z m-234 1 c0 -7 -13 -14 -30 -15 -30 -2 -41 12 -17 21
23 10 47 7 47 -6z m-1562 -32 c-3 -3 -9 2 -12 12 -6 14 -5 15 5 6 7 -7 10 -15
7 -18z m1672 15 c11 -7 6 -10 -22 -10 -20 0 -40 5 -43 10 -8 13 45 13 65 0z
m-755 -9 c3 -5 1 -12 -5 -16 -13 -8 -50 3 -50 16 0 12 47 12 55 0z m463 -35
c11 -8 10 -11 -5 -17 -32 -13 -73 -10 -73 6 0 31 45 38 78 11z m632 12 c0 -4
-6 -8 -14 -8 -8 0 -17 4 -20 8 -2 4 4 8 15 8 10 0 19 -4 19 -8z m-470 -8 c13
-9 13 -11 0 -20 -21 -13 -42 -12 -63 4 -18 14 -18 14 0 19 31 8 47 7 63 -3z
m-551 -37 c-15 -41 -6 -54 32 -43 41 12 46 7 26 -23 -22 -33 -63 -39 -108 -16
-34 17 -60 49 -39 49 5 0 12 11 16 25 7 26 38 35 48 13 3 -9 8 -8 16 5 16 25
21 21 9 -10z m896 16 c10 -15 -1 -22 -24 -14 -12 3 -19 11 -16 16 8 12 32 11
40 -2z m150 1 c3 -6 -1 -7 -9 -4 -18 7 -21 14 -7 14 6 0 13 -4 16 -10z m-638
-36 c8 -22 -12 -60 -36 -67 -39 -10 -82 49 -54 76 14 14 84 7 90 -9z m926 -26
c-5 -10 -33 10 -33 23 0 5 9 4 19 -3 11 -7 17 -16 14 -20z m-1865 -29 c-3 -8
-7 -3 -11 10 -4 17 -3 21 5 13 5 -5 8 -16 6 -23z m1413 -16 c33 -36 62 -83 56
-90 -10 -10 -58 31 -87 73 -25 38 -27 44 -12 44 10 0 30 -12 43 -27z m-391
-26 c17 -31 9 -43 -19 -27 -13 6 -21 21 -21 36 0 32 19 27 40 -9z m-441 -14
c-1 -16 -3 -21 -6 -11 -2 10 -10 15 -19 11 -8 -3 -14 0 -14 5 0 6 8 13 18 15
9 3 18 5 20 6 1 0 1 -11 1 -26z m26 -2 c3 -5 2 -12 -3 -15 -5 -3 -9 1 -9 9 0
17 3 19 12 6z m230 -61 c3 -5 -1 -10 -10 -10 -9 0 -13 5 -10 10 3 6 8 10 10
10 2 0 7 -4 10 -10z m77 -55 c5 -26 -6 -35 -34 -27 -22 5 -23 20 -2 43 20 22
30 18 36 -16z m79 -8 c-10 -9 -11 -8 -5 6 3 10 9 15 12 12 3 -3 0 -11 -7 -18z
m286 -84 c-3 -10 -5 -4 -5 12 0 17 2 24 5 18 2 -7 2 -21 0 -30z m-292 -22 c3
-5 1 -12 -4 -15 -5 -3 -11 1 -15 9 -6 16 9 21 19 6z m354 -247 c-10 -12 -10
-15 2 -12 8 2 14 -5 14 -17 0 -14 -6 -19 -19 -17 -11 2 -15 -1 -11 -7 6 -11
-7 -15 -17 -5 -9 9 24 84 34 78 5 -3 4 -12 -3 -20z m-46 -79 c-3 -9 -8 -14
-10 -11 -3 3 -2 9 2 15 9 16 15 13 8 -4z m22 -19 c0 -15 -4 -21 -9 -16 -5 5
-6 16 -3 24 9 22 12 20 12 -8z m-1022 -23 c-3 -7 -9 -10 -14 -7 -14 8 -11 21
5 21 8 0 12 -6 9 -14z m993 1 c-3 -9 -6 -26 -6 -40 0 -16 -4 -22 -14 -18 -9 3
-13 16 -11 32 2 15 4 30 4 35 1 4 8 7 17 7 11 0 14 -5 10 -16z m11 -56 c-3 -8
-6 -5 -6 6 -1 11 2 17 5 13 3 -3 4 -12 1 -19z m-181 -3 c-8 -8 -18 -15 -22
-15 -3 0 -1 7 6 15 7 8 17 15 22 15 5 0 3 -7 -6 -15z m149 -15 c3 -5 2 -10 -4
-10 -5 0 -13 5 -16 10 -3 6 -2 10 4 10 5 0 13 -4 16 -10z m-1062 -38 c9 -47
-22 -95 -37 -57 -3 8 0 15 6 15 7 0 7 4 -1 13 -8 10 -7 17 1 25 7 7 8 12 4 12
-5 0 -17 -10 -27 -22 -16 -17 -19 -18 -19 -4 0 53 63 69 73 18z m932 28 c3 -5
1 -10 -4 -10 -6 0 -11 5 -11 10 0 6 2 10 4 10 3 0 8 -4 11 -10z m-625 -20 c0
-5 9 -10 19 -10 24 0 37 -18 23 -32 -8 -8 -16 -6 -28 7 -10 10 -27 15 -41 12
-27 -5 -31 8 -5 22 22 13 32 14 32 1z m468 -15 c-3 -3 -9 2 -12 12 -6 14 -5
15 5 6 7 -7 10 -15 7 -18z m-878 -26 c0 -6 -4 -7 -10 -4 -5 3 -10 11 -10 16 0
6 5 7 10 4 6 -3 10 -11 10 -16z m970 17 c0 -3 -4 -8 -10 -11 -5 -3 -10 -1 -10
4 0 6 5 11 10 11 6 0 10 -2 10 -4z m-480 -47 c0 -6 -4 -7 -10 -4 -5 3 -10 11
-10 16 0 6 5 7 10 4 6 -3 10 -11 10 -16z m-53 -26 c-3 -10 -5 -4 -5 12 0 17 2
24 5 18 2 -7 2 -21 0 -30z m-427 -15 c-13 -10 -26 -16 -29 -12 -3 4 0 9 7 11
6 3 12 11 12 19 0 8 6 11 17 7 14 -6 13 -9 -7 -25z m947 0 c-3 -8 -6 -5 -6 6
-1 11 2 17 5 13 3 -3 4 -12 1 -19z m-87 -30 c6 -7 21 -26 35 -41 23 -26 29
-40 26 -59 0 -5 3 -8 7 -8 11 0 13 -48 2 -55 -6 -3 -10 3 -10 15 0 34 -38 98
-70 117 -31 18 -35 25 -23 36 10 10 21 8 33 -5z m-189 -8 c10 -6 19 -21 19
-33 0 -23 28 -70 31 -52 1 6 2 15 4 20 1 6 3 17 4 25 1 12 5 11 16 -4 14 -19
15 -18 15 13 0 36 20 34 20 -2 1 -12 7 -39 15 -60 11 -33 11 -38 -1 -33 -17 6
-18 -8 -3 -36 14 -25 4 -35 -17 -17 -15 12 -16 8 -13 -43 3 -34 0 -56 -6 -55
-5 1 -9 -4 -7 -10 4 -21 -8 -15 -18 10 l-9 22 0 -22 c-1 -32 -22 -40 -39 -15
-15 22 -52 31 -52 12 0 -5 -9 -1 -20 10 -26 26 -40 18 -40 -21 0 -40 -30 -39
-53 3 -15 25 -20 29 -28 17 -7 -12 -9 -12 -9 1 0 10 -7 7 -20 -10 l-20 -25 0
31 c0 24 -5 33 -22 38 -13 3 -32 13 -42 21 -16 12 -17 17 -5 31 7 9 25 21 39
27 25 11 25 11 -10 15 -19 2 -41 9 -49 15 -18 15 -83 9 -98 -10 -7 -9 -17 -12
-25 -7 -7 5 -29 14 -48 20 -28 10 -31 12 -11 13 16 1 21 6 18 15 -7 19 16 38
36 30 10 -3 20 2 26 15 15 27 43 35 127 36 l72 0 26 -47 c15 -27 31 -48 37
-48 14 0 11 18 -7 45 -22 33 -13 42 48 47 29 3 54 11 56 17 5 14 37 14 63 1z
m378 -56 c14 -48 21 -214 9 -211 -4 1 -14 -7 -23 -18 -16 -19 -16 -19 -4 4 11
24 9 93 -7 219 -8 65 7 69 25 6z m-2611 11 c-3 -3 -9 2 -12 12 -6 14 -5 15 5
6 7 -7 10 -15 7 -18z m1347 15 c-3 -5 -11 -10 -16 -10 -6 0 -7 5 -4 10 3 6 11
10 16 10 6 0 7 -4 4 -10z m265 -4 c0 -3 -4 -8 -10 -11 -5 -3 -10 -1 -10 4 0 6
5 11 10 11 6 0 10 -2 10 -4z m1457 -22 c35 -7 41 -11 57 -42 20 -40 30 -76 19
-69 -6 4 -25 -9 -43 -28 -18 -19 -37 -32 -42 -29 -4 3 -6 10 -3 15 8 12 -53 0
-90 -19 -16 -8 -34 -21 -38 -29 -5 -7 -12 -11 -17 -8 -5 3 -11 1 -15 -5 -3 -6
1 -13 10 -16 12 -5 13 -10 4 -20 -8 -10 -16 -11 -30 -3 -11 5 -24 7 -29 4 -31
-19 -28 31 4 74 6 7 19 34 28 60 15 40 18 43 23 24 4 -13 11 -20 16 -17 5 3 6
-2 3 -10 -7 -19 23 -21 47 -3 26 20 28 41 9 83 -19 41 -18 56 2 36 13 -13 39
-16 37 -4 -3 16 2 23 11 17 6 -4 22 -9 37 -11z m125 -19 c-2 -15 0 -25 7 -25
6 0 11 -4 11 -8 0 -5 -7 -9 -15 -9 -8 0 -12 4 -9 9 8 12 -10 10 -24 -4 -20
-20 -14 7 9 36 25 32 27 32 21 1z m-237 5 c3 -5 1 -10 -4 -10 -6 0 -11 5 -11
10 0 6 2 10 4 10 3 0 8 -4 11 -10z m-1346 -70 c-22 -13 -69 -20 -69 -11 0 15
14 21 49 21 27 -1 32 -3 20 -10z m1155 -69 c-7 -8 -44 32 -44 48 0 11 8 6 24
-14 13 -16 22 -32 20 -34z m446 2 c0 -7 -4 -13 -9 -13 -5 0 -13 6 -19 13 -8
10 -6 13 9 13 10 0 19 -6 19 -13z m-850 -53 c0 -5 -5 -10 -11 -10 -5 0 -7 5
-4 10 3 6 8 10 11 10 2 0 4 -4 4 -10z m153 -20 c-3 -11 -7 -20 -9 -20 -2 0 -4
9 -4 20 0 11 4 20 9 20 5 0 7 -9 4 -20z m-863 -4 c0 -8 -5 -18 -10 -21 -6 -4
-7 -12 -4 -18 5 -8 4 -9 -4 -2 -6 6 -9 20 -6 33 7 24 24 30 24 8z m1705 -6
c-3 -5 -12 -10 -18 -10 -7 0 -6 4 3 10 19 12 23 12 15 0z m-665 -36 c0 -14 -4
-23 -10 -19 -5 3 -10 15 -10 26 0 10 5 19 10 19 6 0 10 -12 10 -26z m-1383
-36 c-3 -8 -6 -5 -6 6 -1 11 2 17 5 13 3 -3 4 -12 1 -19z m417 -13 c2 -7 -4
-15 -15 -18 -17 -5 -18 -3 -8 9 10 12 9 13 -5 8 -15 -6 -22 6 -10 19 9 8 32
-2 38 -18z m-367 -7 c-3 -8 -6 -5 -6 6 -1 11 2 17 5 13 3 -3 4 -12 1 -19z
m-61 -16 c-4 -3 -14 2 -24 12 -16 18 -16 18 6 6 13 -6 21 -14 18 -18z m819 13
c-40 -19 -67 -18 -35 0 14 8 34 14 45 14 15 -1 13 -4 -10 -14z m-1971 -16 c-6
-11 -24 -2 -24 11 0 5 7 7 15 4 8 -4 12 -10 9 -15z m1901 1 c-3 -5 -19 -10
-36 -10 -16 0 -29 5 -29 10 0 6 16 10 36 10 21 0 33 -4 29 -10z m-1890 -50
c-9 -17 -20 -28 -25 -25 -5 3 0 17 12 30 29 33 32 31 13 -5z m-55 6 c0 -2 3
-12 7 -21 5 -14 2 -16 -15 -10 -18 5 -22 2 -22 -14 0 -11 -5 -23 -12 -27 -8
-5 -9 0 -4 17 4 13 9 31 11 39 2 8 4 16 4 18 2 4 31 2 31 -2z m-214 -75 c2 -2
10 2 19 9 13 11 15 9 15 -13 0 -23 -16 -37 -43 -37 -8 0 -13 21 -13 58 -1 54
-1 55 9 22 6 -19 12 -37 13 -39z m3043 5 c-2 -19 0 -38 4 -42 4 -4 7 0 7 10 0
9 5 14 10 11 20 -12 -9 -45 -38 -43 -15 1 -33 -1 -40 -6 -7 -4 -12 -3 -12 3 0
5 5 13 10 16 6 4 8 10 5 14 -2 5 4 16 15 26 11 10 20 24 20 32 0 7 5 13 11 13
6 0 9 -15 8 -34z m-2912 -8 c-3 -8 -6 -5 -6 6 -1 11 2 17 5 13 3 -3 4 -12 1
-19z m140 16 c-3 -3 -12 -4 -19 -1 -8 3 -5 6 6 6 11 1 17 -2 13 -5z m2456 -62
c15 -2 27 -8 27 -14 0 -5 6 -8 13 -5 8 3 33 -8 57 -24 39 -26 45 -28 60 -14 9
8 24 15 32 15 20 0 42 26 33 40 -3 5 -1 10 5 10 6 0 8 5 4 12 -4 7 -3 8 5 4
11 -7 9 -22 -6 -63 -3 -7 3 -10 14 -8 10 2 22 4 26 4 5 1 5 6 2 11 -3 6 -2 10
4 10 6 0 15 -9 21 -19 12 -24 66 -25 81 -2 9 14 10 14 5 -1 -7 -25 11 -23 24
2 6 11 17 20 24 20 7 0 19 11 26 25 7 14 20 25 27 25 11 0 10 -6 -4 -30 -9
-16 -20 -30 -24 -30 -4 0 -10 -8 -13 -17 -13 -36 -31 -60 -44 -55 -6 2 -12 0
-12 -5 -1 -4 -9 -18 -20 -31 -17 -20 -22 -21 -40 -10 -19 11 -24 10 -37 -9
-17 -25 -52 -30 -71 -11 -22 22 19 -53 71 -130 26 -40 47 -80 45 -90 -2 -10
-20 14 -46 64 -50 94 -98 147 -112 124 -5 -8 -10 -12 -10 -8 0 4 -14 2 -31 -4
-25 -8 -33 -8 -40 3 -7 11 -9 11 -9 1 0 -7 -4 -11 -9 -8 -5 4 -11 2 -13 -4 -1
-5 -29 -12 -61 -14 -31 -3 -61 -7 -65 -10 -5 -3 -7 9 -4 27 2 18 0 27 -5 21
-12 -16 -49 -34 -57 -27 -10 10 -7 35 4 28 6 -3 10 -1 10 4 0 6 -16 12 -35 12
-19 1 -45 2 -57 2 -12 1 -24 -5 -26 -12 -3 -9 0 -11 9 -6 11 6 12 5 2 -5 -10
-11 -17 -8 -39 16 -14 16 -23 23 -20 17 9 -16 -6 -17 -21 -2 -8 8 -20 7 -43
-5 -37 -18 -50 -14 -43 13 4 15 12 19 39 16 29 -2 34 1 34 19 0 19 6 21 60 22
37 1 60 -3 60 -10 0 -7 3 -7 8 -1 4 6 14 10 22 10 9 0 15 9 15 22 0 11 3 24 6
28 4 3 7 -5 7 -19 0 -55 57 -68 95 -22 12 15 16 16 11 4 -3 -9 -1 -25 5 -35
10 -17 11 -17 9 2 -3 39 2 65 12 65 6 0 9 -3 9 -7 -4 -24 4 -25 21 -3 l20 25
0 -22 c0 -21 -14 -29 -42 -24 -5 0 -8 -3 -8 -9 0 -5 7 -10 15 -10 22 0 18 -15
-10 -46 -24 -25 -32 -44 -19 -44 3 0 17 14 31 30 21 26 28 29 41 18 14 -12 14
-11 1 10 -12 20 -12 26 4 54 21 37 20 38 -65 69 -69 26 -97 52 -78 74 10 13
15 10 34 -18 14 -20 31 -33 49 -35z m-2613 28 c0 -5 -2 -10 -4 -10 -3 0 -8 5
-11 10 -3 6 -1 10 4 10 6 0 11 -4 11 -10z m2765 -30 c7 -22 6 -23 -8 -12 -9 8
-21 11 -27 7 -6 -4 -6 3 2 20 12 28 22 24 33 -15z m-219 -34 c0 -15 -5 -21
-10 -16 -5 5 -6 16 -3 24 9 23 15 19 13 -8z m-116 -24 c0 -15 -2 -15 -10 -2
-13 20 -13 33 0 25 6 -3 10 -14 10 -23z m94 2 c10 -25 -1 -29 -14 -5 -6 12 -7
21 -1 21 5 0 12 -7 15 -16z m1086 -58 c0 -9 -4 -16 -10 -16 -5 0 -7 6 -4 14 3
8 1 17 -5 21 -6 3 -11 11 -11 16 0 6 7 4 15 -5 8 -8 15 -22 15 -30z m64 -29
c4 -20 3 -37 -1 -36 -19 3 -22 -3 -13 -26 9 -23 7 -25 -18 -25 -18 0 -23 3
-14 9 7 4 13 23 13 42 0 29 18 84 24 76 1 -1 5 -19 9 -40z m36 2 c0 -6 -4 -7
-10 -4 -5 3 -10 11 -10 16 0 6 5 7 10 4 6 -3 10 -11 10 -16z m-1506 -78 c-2
-3 -12 3 -22 13 -16 17 -16 18 5 5 12 -7 20 -15 17 -18z m81 9 c0 -7 -8 -14
-17 -16 -18 -2 -24 16 -11 30 10 10 28 1 28 -14z m1415 16 c0 -3 -4 -8 -10
-11 -5 -3 -10 -1 -10 4 0 6 5 11 10 11 6 0 10 -2 10 -4z m-3070 -91 c0 -8 -2
-15 -4 -15 -2 0 -6 7 -10 15 -3 8 -1 15 4 15 6 0 10 -7 10 -15z m3950 6 c0 -5
-10 -11 -22 -14 -22 -6 -22 -6 -4 8 23 17 26 18 26 6z m-250 -28 c0 -19 -3
-24 -10 -17 -6 6 -8 18 -4 27 9 24 14 21 14 -10z m-3932 -28 c-6 -14 -13 -23
-16 -21 -7 7 9 46 18 46 5 0 4 -11 -2 -25z m2455 19 c3 -3 3 -13 0 -21 -5 -12
-7 -12 -14 -1 -15 23 -4 40 14 22z m-1433 -14 c0 -5 -2 -10 -4 -10 -3 0 -8 5
-11 10 -3 6 -1 10 4 10 6 0 11 -4 11 -10z m-1435 -20 c-5 -15 -3 -18 9 -14 9
3 14 10 11 14 -3 5 4 6 15 3 11 -3 18 -9 15 -13 -3 -4 -6 -28 -6 -54 -1 -25
-6 -46 -10 -46 -4 0 -5 -10 -1 -22 4 -17 2 -20 -11 -15 -12 4 -15 1 -11 -11 5
-15 4 -15 -6 1 -6 9 -17 17 -25 17 -17 0 -38 36 -30 51 4 5 1 16 -5 24 -10 12
-9 15 6 15 15 0 16 2 5 9 -7 5 -22 6 -34 3 -14 -3 -18 -1 -13 6 4 7 14 12 22
12 8 0 14 5 14 10 0 10 33 28 53 29 5 1 6 -8 2 -19z m918 3 c-3 -10 -11 -25
-18 -33 -21 -26 -25 -62 -8 -78 14 -15 15 -14 10 3 -8 25 5 47 24 43 8 -2 13
4 13 15 -1 9 2 17 7 17 5 0 9 -9 9 -21 0 -11 5 -17 10 -14 6 3 10 2 10 -2 0
-5 -9 -14 -20 -21 -12 -7 -18 -17 -15 -22 3 -6 1 -10 -4 -10 -6 0 -11 -9 -11
-20 0 -26 20 -26 27 0 3 11 9 18 13 15 9 -5 50 32 50 46 0 6 4 8 9 5 5 -3 11
1 15 9 8 21 27 19 19 -2 -4 -12 0 -11 11 5 19 24 38 30 30 8 -3 -7 2 -16 10
-19 10 -4 16 -19 16 -41 0 -36 -14 -56 -23 -34 -3 7 -6 -6 -6 -29 -1 -24 4
-43 9 -43 5 0 9 3 9 8 -6 35 16 60 23 27 2 -12 6 -11 16 6 12 19 12 21 -2 16
-21 -8 -20 8 1 33 13 15 19 16 25 7 5 -7 6 1 2 18 -9 39 -10 40 -30 24 -16
-13 -16 -12 -3 9 14 22 39 30 39 12 0 -5 7 -10 15 -10 18 0 19 -11 3 -29 -11
-11 -10 -13 0 -7 19 11 55 -3 43 -18 -14 -16 -1 -33 31 -41 15 -4 29 -14 33
-22 4 -12 2 -13 -8 -5 -11 9 -18 3 -35 -29 -27 -50 -28 -68 -4 -46 10 10 26
17 36 17 10 0 24 15 33 38 13 29 18 33 21 18 3 -15 6 -16 13 -5 7 11 9 10 10
-6 1 -11 0 -31 -1 -45 -1 -14 -2 -48 -2 -77 0 -40 -3 -50 -14 -46 -8 3 -14 -1
-14 -11 0 -20 -34 -21 -54 -1 -17 18 -46 20 -46 3 0 -6 -6 -3 -14 7 -12 17
-12 21 5 33 23 16 17 32 -10 25 -10 -3 -22 0 -25 6 -12 19 -26 12 -26 -13 0
-14 -5 -28 -10 -31 -18 -11 0 -25 25 -19 13 3 26 0 30 -7 6 -8 4 -10 -6 -4
-11 7 -12 6 -2 -7 7 -8 10 -18 6 -22 -4 -4 5 -2 21 4 24 9 31 7 43 -7 9 -11
12 -12 7 -3 -5 12 -4 12 6 3 7 -6 9 -16 5 -23 -5 -8 -12 -6 -26 6 -25 23 -24
9 1 -18 11 -12 17 -24 14 -27 -3 -3 -11 1 -17 9 -13 17 -47 23 -47 9 0 -5 4
-9 8 -9 5 0 7 -13 4 -29 -2 -16 1 -32 7 -35 6 -4 11 -16 11 -27 0 -11 7 -34
16 -51 9 -16 12 -28 7 -25 -5 3 -9 -3 -9 -14 0 -21 12 -26 19 -6 3 6 5 -4 5
-23 1 -55 7 -81 23 -91 8 -5 10 -9 6 -9 -4 0 -2 -10 5 -22 7 -13 14 -27 14
-33 1 -5 3 -12 4 -15 5 -12 12 -78 11 -113 0 -21 3 -36 8 -33 4 3 7 -10 5 -29
-1 -19 2 -37 7 -41 5 -3 6 -11 2 -17 -9 -15 -12 -51 -4 -57 4 -3 12 -32 19
-65 7 -33 15 -69 17 -80 3 -11 6 -32 7 -47 1 -16 5 -28 8 -28 3 0 5 -12 6 -27
2 -65 10 -113 18 -113 4 0 6 -7 2 -15 -3 -8 -1 -15 5 -15 6 0 3 -7 -5 -16 -9
-8 -16 -20 -16 -26 0 -7 -16 -8 -47 -3 -79 12 -107 16 -129 19 -11 1 -26 6
-34 11 -9 5 -15 4 -18 -3 -2 -7 -7 -12 -12 -12 -11 0 -126 111 -138 134 -5 11
-16 21 -23 22 -16 4 -36 9 -65 19 -19 6 -22 18 -15 78 1 4 8 7 16 7 8 0 14 -5
12 -12 -1 -6 6 -14 16 -16 13 -3 17 3 17 27 0 24 4 31 20 31 11 0 20 4 20 10
0 5 7 7 15 4 9 -4 15 0 15 8 0 8 9 23 19 32 10 9 17 25 16 34 -11 55 -13 92
-4 87 5 -4 9 -1 9 4 0 6 -4 11 -9 11 -5 0 -7 10 -4 21 5 18 3 20 -18 14 -18
-5 -21 -4 -9 4 11 8 12 11 2 11 -7 0 -11 4 -7 9 3 6 -33 49 -80 98 -47 48 -85
97 -86 108 -1 11 -2 35 -4 52 -1 18 1 30 5 28 9 -5 22 26 19 41 -4 16 28 109
59 170 35 69 60 97 105 120 42 22 42 21 27 39 -8 9 -11 30 -7 55 3 27 1 40 -7
40 -7 0 -12 -17 -13 -40 -2 -43 -38 -114 -54 -104 -5 3 -9 -4 -9 -15 0 -17 -4
-19 -24 -11 -13 5 -27 6 -30 3 -3 -4 -6 -1 -6 5 0 7 -9 12 -21 12 -11 0 -17 5
-14 10 3 6 2 10 -4 10 -5 0 -14 -8 -20 -17 -8 -15 -11 -15 -26 -3 -14 12 -18
12 -26 -1 -6 -10 -9 -11 -9 -1 0 7 -4 10 -10 7 -5 -3 -10 -2 -10 3 0 6 -7 9
-16 8 -9 0 -19 5 -21 12 -3 6 0 12 7 12 6 0 8 -4 5 -10 -3 -5 -2 -10 3 -10 6
0 12 7 16 15 3 8 1 15 -5 15 -6 0 -7 5 -4 10 6 9 -8 14 -28 11 -4 -1 -3 8 3
19 10 19 9 20 -17 14 -25 -7 -27 -6 -14 9 12 15 11 17 -8 17 -12 0 -38 12 -57
26 -48 37 -45 25 23 -83 18 -28 33 -55 33 -59 0 -4 8 -16 18 -27 9 -11 11 -17
3 -12 -10 5 -12 3 -8 -11 28 -95 48 -186 45 -200 -2 -11 -20 -21 -50 -29 -26
-6 -45 -8 -42 -4 8 13 -60 28 -68 15 -5 -8 -8 -7 -8 2 0 7 -14 12 -37 12 -31
0 -44 7 -71 37 -30 34 -32 35 -27 13 5 -22 4 -23 -5 -7 -7 10 -9 25 -6 32 3 8
1 17 -4 20 -6 4 -10 17 -10 31 0 14 -4 22 -10 19 -5 -3 -10 0 -10 7 0 17 101
121 154 160 37 27 38 28 13 28 -14 0 -32 -8 -39 -17 -21 -29 -52 -23 -58 11
-4 26 -7 27 -18 13 -17 -20 -41 -11 -53 20 -5 13 -13 21 -19 18 -6 -4 -10 9
-10 31 0 45 -8 41 -13 -6 -5 -43 -25 -51 -33 -12 -4 21 -11 28 -23 26 -9 -2
-22 0 -30 5 -10 7 -8 19 13 62 14 30 26 50 26 44 0 -5 5 -2 11 8 7 12 17 16
30 12 11 -4 19 -2 19 5 0 6 -4 9 -9 6 -5 -4 -7 3 -4 14 3 11 10 17 15 14 6 -4
8 3 3 17 -5 18 -4 20 4 9 5 -8 7 -28 4 -45 -6 -30 -6 -30 14 -12 13 11 23 14
27 8 4 -5 2 -12 -4 -16 -5 -3 -10 -15 -10 -25 0 -17 2 -17 25 5 13 14 30 25
36 25 7 0 9 3 6 6 -4 4 3 15 15 26 15 13 24 15 29 7 4 -7 10 -3 15 12 8 24 8
24 13 -5 7 -34 31 -48 31 -18 0 16 6 20 30 20 18 -1 30 -6 30 -15 0 -15 16
-18 25 -3 3 5 15 15 27 21 19 10 20 9 14 -15 -4 -15 -2 -26 3 -26 6 0 8 -7 4
-16 -5 -13 1 -14 34 -11 37 5 39 4 41 -26 2 -17 5 -33 8 -36 7 -8 37 13 40 27
1 7 0 8 -2 3 -11 -21 -33 2 -32 33 1 18 -2 37 -5 43 -4 5 2 19 12 30 10 10 24
29 30 41 14 26 23 29 14 5z m1256 -9 c13 8 20 -15 14 -47 -5 -28 -18 -36 -25
-16 -2 7 -30 13 -64 14 -98 4 -121 17 -88 49 11 12 20 13 34 6 21 -11 70 -3
70 11 0 5 11 2 25 -7 13 -8 28 -13 34 -10z m551 22 c0 -2 -8 -10 -17 -17 -16
-13 -17 -12 -4 4 13 16 21 21 21 13z m-2093 -28 c-3 -8 -6 -5 -6 6 -1 11 2 17
5 13 3 -3 4 -12 1 -19z m2047 -8 c-5 10 -4 12 4 5 5 -5 13 -28 16 -50 3 -22 5
-41 6 -42 0 -2 6 -3 13 -3 7 0 13 9 13 19 0 11 -3 18 -7 15 -4 -2 -9 5 -12 16
-3 11 -4 20 -2 20 2 0 11 3 21 7 11 4 15 3 10 -5 -3 -6 -1 -14 5 -17 5 -4 8
-13 5 -20 -2 -7 4 -15 14 -18 14 -4 17 -11 13 -28 -6 -22 -7 -22 -14 -3 -7 16
-8 17 -8 2 -1 -10 -6 -18 -12 -18 -5 0 -7 5 -4 10 3 6 -3 10 -13 10 -23 0 -46
25 -37 40 9 14 -8 13 -23 -2 -7 -7 -12 -8 -12 -2 0 6 5 15 12 22 9 9 9 15 0
24 -7 7 -12 19 -12 27 0 11 4 10 16 -5 8 -10 12 -12 8 -4z m156 10 c0 -5 -4
-10 -9 -10 -6 0 -13 5 -16 10 -3 6 1 10 9 10 9 0 16 -4 16 -10z m60 0 c0 -5 9
-10 21 -10 11 0 18 -4 14 -10 -3 -6 -15 -5 -30 2 -25 11 -34 28 -15 28 6 0 10
-4 10 -10z m-2085 -10 c-3 -5 -12 -10 -18 -10 -7 0 -6 4 3 10 19 12 23 12 15
0z m192 -12 c-3 -8 -6 -5 -6 6 -1 11 2 17 5 13 3 -3 4 -12 1 -19z m2267 7 c-4
-8 -8 -15 -10 -15 -2 0 -4 7 -4 15 0 8 4 15 10 15 5 0 7 -7 4 -15z m1036 11
c0 -3 -4 -8 -10 -11 -5 -3 -10 -1 -10 4 0 6 5 11 10 11 6 0 10 -2 10 -4z
m-4086 -21 c-4 -8 -11 -12 -16 -9 -6 4 -5 10 3 15 19 12 19 11 13 -6z m259 0
c-3 -9 -8 -14 -10 -11 -3 3 -2 9 2 15 9 16 15 13 8 -4z m1487 11 c0 -3 -4 -8
-10 -11 -5 -3 -10 -1 -10 4 0 6 5 11 10 11 6 0 10 -2 10 -4z m503 -11 c-3 -9
-8 -14 -10 -11 -3 3 -2 9 2 15 9 16 15 13 8 -4z m-1923 -17 c0 -26 -21 -33
-36 -13 -16 22 -12 31 15 31 13 0 21 -7 21 -18z m3950 18 c0 -2 -7 -7 -16 -10
-8 -3 -12 -2 -9 4 6 10 25 14 25 6z m-3040 -31 c13 8 6 -49 -7 -63 -9 -9 -13
-10 -13 -2 0 6 -4 9 -9 6 -10 -6 -25 24 -16 32 3 3 5 1 5 -5 0 -6 6 -13 14
-16 12 -5 14 11 6 48 -4 19 2 30 7 12 2 -9 8 -15 13 -12z m67 -7 c-3 -7 -5 -2
-5 12 0 14 2 19 5 13 2 -7 2 -19 0 -25z m387 7 c-9 -14 -18 -25 -21 -25 -5 0
5 18 20 38 17 22 18 13 1 -13z m-1620 -8 c-3 -8 -12 -18 -19 -21 -10 -3 -12 0
-8 11 4 11 2 14 -5 9 -7 -4 -12 -5 -12 -1 0 6 43 24 48 20 1 -1 0 -9 -4 -18z
m81 13 c-4 -6 -10 -8 -15 -5 -5 3 -7 -3 -5 -15 2 -11 -1 -23 -7 -26 -6 -4 -8
-3 -5 3 4 6 0 13 -8 17 -28 10 -17 36 16 36 18 0 28 -4 24 -10z m1600 -18 c-4
-12 -3 -12 9 -3 8 7 17 8 20 3 3 -6 -1 -15 -9 -22 -27 -23 -13 -72 16 -54 7 4
8 9 1 13 -16 10 5 51 28 51 l20 0 -20 -20 c-12 -12 -18 -25 -15 -29 2 -5 -2
-14 -10 -21 -15 -12 -21 -50 -9 -50 4 0 18 12 32 27 l25 27 9 -23 c12 -32 6
-81 -9 -81 -7 0 -13 -7 -13 -15 0 -18 16 -20 24 -2 4 6 4 -9 1 -35 -3 -31 -1
-48 6 -48 6 0 9 7 5 15 -3 8 0 14 7 12 8 -1 11 9 10 28 -2 19 1 25 6 17 12
-20 34 12 26 39 -5 14 -3 19 3 15 6 -3 12 -1 14 4 2 6 4 -7 4 -30 1 -27 -3
-40 -12 -40 -10 0 -11 -6 -4 -26 6 -14 6 -23 1 -20 -5 3 -12 -1 -15 -10 -10
-26 -7 -52 7 -61 9 -5 11 -18 6 -38 -5 -24 -7 -25 -8 -7 0 12 -5 22 -11 22
-10 0 -14 -13 -11 -42 1 -10 -3 -18 -9 -18 -6 0 -8 5 -5 11 7 11 -29 52 -37
43 -3 -2 -18 2 -34 11 -24 12 -28 20 -26 45 4 35 -10 39 -29 9 -13 -19 -14
-16 -16 30 0 28 3 48 8 45 19 -12 30 8 12 23 -10 8 -12 11 -4 7 10 -5 12 -3 7
5 -6 9 -14 8 -32 -4 -21 -14 -24 -14 -24 0 0 8 0 18 0 23 0 4 6 7 13 7 6 0 13
10 15 23 2 12 8 22 13 22 5 0 9 7 9 16 0 13 -3 14 -14 5 -10 -9 -15 -8 -20 4
-3 8 -12 15 -20 15 -8 0 -18 5 -22 12 -5 7 -3 8 5 4 8 -5 11 -3 10 5 -5 23 11
69 22 69 8 0 8 -4 0 -14 -10 -11 -8 -16 9 -21 28 -9 33 -3 21 28 -8 22 -8 25
5 20 9 -3 13 -12 9 -21z m590 18 c3 -5 1 -19 -5 -31 -9 -16 -8 -24 5 -39 9
-10 24 -17 33 -15 9 2 20 4 25 4 4 1 7 15 7 32 0 18 4 28 10 24 11 -7 2 -57
-13 -66 -5 -4 -6 -12 -2 -18 4 -7 2 -18 -5 -26 -9 -11 -6 -25 12 -63 19 -38
21 -49 9 -44 -11 4 -9 -3 6 -22 12 -15 19 -34 16 -42 -8 -21 -23 -17 -23 5 0
11 -5 23 -11 27 -6 3 -9 14 -6 24 5 19 -17 60 -32 60 -5 0 -11 -9 -14 -21 -4
-16 -3 -18 9 -8 15 13 19 2 5 -19 -6 -10 -10 -10 -21 2 -10 13 -9 20 4 41 9
13 16 33 16 44 0 11 4 21 9 23 4 2 5 12 0 23 -6 17 -8 17 -8 3 -1 -22 -21 -24
-21 -3 0 8 -9 23 -20 32 -27 24 -27 83 1 83 4 0 11 -4 14 -10z m-858 -32 c-3
-7 -5 -2 -5 12 0 14 2 19 5 13 2 -7 2 -19 0 -25z m433 11 c0 -6 -4 -7 -10 -4
-5 3 -10 11 -10 16 0 6 5 7 10 4 6 -3 10 -11 10 -16z m-880 1 c0 -5 -5 -10
-11 -10 -5 0 -7 5 -4 10 3 6 8 10 11 10 2 0 4 -4 4 -10z m833 -22 c-3 -16 -9
-28 -14 -28 -14 0 -11 48 4 53 16 6 16 6 10 -25z m372 12 c-5 -16 -3 -19 11
-13 12 4 15 3 10 -6 -7 -11 25 -53 36 -48 2 1 0 -2 -4 -7 -4 -6 -17 -1 -29 10
-22 19 -22 19 -17 -3 5 -18 0 -22 -26 -26 -17 -2 -34 -3 -38 0 -12 6 -10 43 2
43 6 0 10 7 10 15 0 8 4 15 9 15 5 0 11 9 14 20 3 11 10 20 17 20 7 0 9 -8 5
-20z m-743 -22 c-8 -8 -9 -4 -5 13 4 13 8 18 11 10 2 -7 -1 -18 -6 -23z m1286
-4 c-3 -14 -5 -12 -10 9 -3 19 -2 25 4 19 6 -6 8 -18 6 -28z m-2023 16 c-3 -5
-11 -10 -16 -10 -6 0 -7 5 -4 10 3 6 11 10 16 10 6 0 7 -4 4 -10z m595 -6 c0
-8 -4 -12 -10 -9 -5 3 -10 1 -10 -6 0 -7 -2 -10 -5 -7 -8 7 5 38 16 38 5 0 9
-7 9 -16z m280 12 c0 -3 -4 -8 -10 -11 -5 -3 -10 -1 -10 4 0 6 5 11 10 11 6 0
10 -2 10 -4z m-1533 -22 c9 -9 12 -19 7 -24 -5 -5 -14 1 -21 16 -13 28 -8 31
14 8z m2621 -19 c-3 -3 -9 2 -12 12 -6 14 -5 15 5 6 7 -7 10 -15 7 -18z
m-1467 -8 c-10 -9 -11 -8 -5 6 3 10 9 15 12 12 3 -3 0 -11 -7 -18z m169 4 c0
-30 -11 -51 -26 -51 -8 0 -11 -6 -8 -15 4 -8 1 -15 -5 -15 -10 0 -15 14 -12
34 1 5 -5 6 -13 3 -18 -7 -30 8 -20 24 4 8 9 7 15 -2 7 -11 9 -10 9 4 0 9 5
17 10 17 6 0 10 -4 10 -10 0 -5 5 -10 10 -10 6 0 10 9 10 20 0 11 5 20 10 20
6 0 10 -9 10 -19z m-227 -45 c26 -57 27 -117 1 -95 -8 7 -11 21 -7 40 4 20 1
30 -10 35 -9 3 -15 18 -15 40 0 19 1 34 3 34 2 0 15 -24 28 -54z m107 24 c0
-10 3 -25 6 -34 4 -11 1 -16 -10 -16 -9 0 -16 8 -17 18 0 9 -2 27 -5 39 -3 17
0 21 11 17 8 -4 15 -14 15 -24z m160 20 c0 -5 -2 -10 -4 -10 -3 0 -8 5 -11 10
-3 6 -1 10 4 10 6 0 11 -4 11 -10z m570 -5 c0 -8 -4 -15 -10 -15 -5 0 -10 7
-10 15 0 8 5 15 10 15 6 0 10 -7 10 -15z m-1946 -11 c9 -3 13 -10 10 -15 -8
-14 -21 -11 -28 6 -6 17 -4 18 18 9z m1178 -45 c4 -57 -3 -107 -14 -112 -8 -3
-14 5 -14 19 -1 13 2 24 6 24 4 0 7 25 6 55 -2 52 13 65 16 14z m378 37 c0 -3
-4 -8 -10 -11 -5 -3 -10 -1 -10 4 0 6 5 11 10 11 6 0 10 -2 10 -4z m954 -20
c10 4 15 -6 18 -31 2 -20 0 -38 -4 -41 -4 -3 -8 -12 -8 -20 0 -8 5 -12 10 -9
12 7 12 -2 0 -30 -7 -18 -8 -18 -15 8 -4 15 -5 36 -2 47 3 11 1 17 -4 14 -10
-6 -15 5 -23 56 -4 26 -3 31 4 18 6 -9 17 -15 24 -12z m-2734 -33 c-7 -16 -12
-34 -11 -40 1 -7 -1 -13 -4 -13 -13 0 -75 29 -75 36 0 8 49 47 69 55 26 11 36
-8 21 -38z m2052 15 c-7 -7 -12 -8 -12 -2 0 6 3 14 7 17 3 4 9 5 12 2 2 -3 -1
-11 -7 -17z m425 5 c4 -11 -1 -22 -15 -31 -12 -8 -22 -24 -22 -35 0 -11 -2
-18 -5 -15 -3 2 -2 26 1 51 7 48 28 64 41 30z m103 -25 c0 -10 -4 -18 -10 -18
-5 0 -10 15 -10 33 0 24 3 28 10 17 5 -8 10 -23 10 -32z m280 4 c0 -12 -3 -13
-12 -4 -6 6 -13 19 -14 27 -2 13 1 14 12 4 8 -6 14 -19 14 -27z m-1286 3 c5 0
10 -6 12 -13 1 -7 0 -8 -3 -2 -8 16 -23 1 -16 -17 5 -12 3 -14 -7 -8 -10 6
-12 3 -8 -13 4 -14 2 -22 -7 -22 -7 0 -18 -7 -25 -15 -26 -31 -21 -5 5 29 17
23 25 43 22 56 -3 14 -1 18 6 13 7 -4 16 -8 21 -8z m676 -6 c0 -5 -4 -9 -10
-9 -5 0 -10 -7 -10 -15 0 -18 16 -20 24 -2 2 6 4 3 3 -8 -5 -39 -16 -46 -40
-22 -22 22 -24 42 -5 64 10 13 38 7 38 -8z m136 2 c-12 -13 -16 -27 -11 -43 4
-13 6 -21 3 -18 -29 36 -29 39 -9 59 26 26 40 28 17 2z m-742 -32 c-2 -4 5
-14 16 -24 11 -10 20 -27 20 -38 0 -19 -1 -19 -19 -3 -26 24 -45 72 -36 93 7
17 8 16 15 -2 4 -11 6 -23 4 -26z m381 1 c1 -11 -2 -20 -7 -20 -4 0 -8 12 -8
27 0 30 13 24 15 -7z m282 15 c0 -8 -4 -15 -9 -15 -10 0 -11 14 -1 23 9 10 10
9 10 -8z m-581 -20 c1 -8 -2 -15 -7 -15 -5 0 -9 10 -9 22 0 23 12 17 16 -7z
m-266 8 c0 -5 -5 -15 -10 -23 -7 -12 -9 -10 -7 8 1 19 17 33 17 15z m1461 -40
c-9 -16 -10 -14 -11 12 0 21 3 26 11 18 8 -8 8 -16 0 -30z m-1311 7 c0 -11 6
-20 14 -20 8 0 16 -7 20 -15 3 -8 2 -15 -2 -15 -11 0 -6 -71 7 -103 15 -37 14
-44 -4 -44 -8 0 -15 4 -15 9 0 4 -5 8 -11 8 -6 0 -9 -9 -6 -20 3 -11 1 -23 -4
-26 -14 -8 -40 23 -41 48 0 13 -5 33 -11 45 -7 16 -7 26 3 38 10 12 10 15 -2
15 -8 0 -15 12 -16 30 -2 21 2 30 13 30 8 0 15 -9 15 -21 0 -11 4 -17 10 -14
6 4 4 17 -5 35 -13 26 -13 29 3 33 30 8 32 7 32 -13z m724 -6 c3 -8 2 -13 -3
-10 -5 3 -14 -1 -21 -9 -7 -8 -9 -15 -4 -15 5 -1 -2 -7 -16 -15 -14 -8 -20
-14 -15 -15 6 0 11 -12 11 -28 1 -15 -1 -21 -3 -14 -7 18 -21 15 -28 -7 -4
-12 -12 -18 -21 -14 -28 10 24 107 64 117 12 4 22 11 22 16 0 15 7 12 14 -6z
m-2074 -30 c0 -8 -5 -12 -10 -9 -6 4 -8 11 -5 16 9 14 15 11 15 -7z m421 -16
c16 4 10 -16 -7 -22 -23 -9 -27 -8 -21 9 4 8 2 17 -3 20 -6 4 -10 12 -10 18 0
7 8 3 16 -8 8 -11 20 -19 25 -17z m661 -10 c-6 -6 -12 -6 -16 1 -4 6 -2 11 3
11 6 0 12 8 12 18 1 15 2 15 6 -2 3 -10 0 -23 -5 -28z m1053 -17 c1 -15 -4
-19 -24 -17 -14 2 -26 8 -27 15 -1 6 0 7 2 2 6 -12 34 -3 34 11 0 5 -4 7 -8 4
-4 -2 -8 4 -8 15 0 17 2 17 15 4 8 -8 15 -23 16 -34z m-967 -26 c13 -44 13
-49 -4 -59 -25 -13 -44 -16 -44 -6 0 4 7 10 15 14 19 7 19 55 0 83 -14 19 -13
21 2 19 12 -2 23 -20 31 -51z m72 25 c-13 -23 -30 -35 -30 -20 0 20 21 51 31
45 6 -4 5 -13 -1 -25z m990 26 c0 -3 -4 -8 -10 -11 -5 -3 -10 -1 -10 4 0 6 5
11 10 11 6 0 10 -2 10 -4z m-2072 -23 c-12 -14 -38 -18 -38 -5 0 13 7 18 29
18 15 0 17 -3 9 -13z m2248 -12 c0 -16 -3 -17 -14 -9 -12 10 -7 19 13 28 1 0
1 -9 1 -19z m-123 -28 c17 -35 12 -41 -17 -20 -13 10 -16 20 -11 36 8 26 7 26
28 -16z m-2092 8 c-16 -29 -39 -34 -36 -8 3 28 2 27 25 27 17 0 19 -3 11 -19z
m1089 14 c0 -8 -34 -45 -42 -45 -15 0 -8 29 10 39 19 11 32 14 32 6z m1087
-30 c-2 -42 -14 -46 -23 -7 -4 15 -12 30 -18 34 -6 4 1 8 16 8 26 0 28 -3 25
-35z m-214 -12 c-4 -11 -3 -14 5 -9 14 9 15 -3 2 -24 -7 -11 -10 -11 -10 -2 0
7 -4 11 -8 8 -5 -3 -7 5 -6 17 3 28 2 27 14 27 5 0 6 -7 3 -17z m-863 -14 c0
-11 -4 -17 -10 -14 -5 3 -10 13 -10 21 0 8 5 14 10 14 6 0 10 -9 10 -21z
m1296 -14 c-4 -14 -13 -25 -21 -25 -14 0 -14 4 0 31 19 35 30 32 21 -6z m1679
15 c-3 -5 -16 -10 -28 -9 -21 0 -21 1 -2 9 28 12 37 12 30 0z m-3001 -25 c3
-8 1 -15 -4 -15 -6 0 -10 7 -10 15 0 8 2 15 4 15 2 0 6 -7 10 -15z m3104 -25
c7 -14 11 -45 9 -72 -3 -31 0 -45 6 -41 6 3 2 -6 -9 -20 -18 -25 -52 -48 -38
-26 4 8 1 8 -12 2 -30 -15 -97 -5 -113 18 -7 10 -22 19 -32 19 -11 0 -19 5
-19 11 0 20 21 49 35 49 8 0 15 5 15 10 0 6 6 10 13 10 7 0 18 9 25 20 7 12
17 18 22 15 5 -3 14 4 20 15 16 29 60 23 78 -10z m-3356 -24 c10 -18 7 -17
-15 4 -15 14 -27 29 -27 34 0 13 29 -14 42 -38z m1298 34 c0 -5 3 -9 8 -8 14
4 102 -13 106 -21 3 -4 26 -7 51 -6 25 1 48 -2 51 -6 3 -5 10 -7 15 -3 6 3 19
-2 30 -12 17 -16 19 -16 19 -1 0 11 9 17 23 18 29 2 29 2 51 -7 11 -4 17 -3
14 2 -11 16 50 14 64 -3 12 -15 11 -15 -9 -5 -14 8 -24 9 -28 2 -4 -6 -10 -8
-15 -5 -4 3 -11 -5 -14 -18 -6 -22 -7 -22 -18 -2 -16 29 -18 31 -27 16 -5 -7
-25 -14 -45 -16 -20 -2 -34 1 -31 6 3 5 -1 6 -9 3 -9 -3 -13 -10 -10 -15 3 -5
0 -9 -6 -9 -7 0 -5 -7 4 -16 9 -8 16 -18 16 -22 1 -4 3 -32 5 -64 4 -43 1 -57
-10 -62 -8 -3 -15 -10 -15 -16 0 -6 4 -9 9 -6 5 4 4 -5 -2 -19 -11 -23 -17
-25 -49 -21 -27 4 -36 2 -32 -7 2 -7 26 -13 52 -15 47 -3 169 -38 186 -54 6
-4 22 -8 36 -8 15 0 30 -3 33 -7 4 -3 22 -7 39 -9 41 -2 131 -38 136 -53 2 -6
-2 -11 -8 -11 -7 0 -2 -9 11 -21 13 -11 18 -18 12 -14 -20 10 -15 -9 6 -24 11
-8 17 -21 14 -30 -4 -13 -3 -13 5 -2 6 8 17 11 28 7 10 -4 15 -4 12 0 -10 9
12 29 85 78 65 45 126 65 128 43 0 -8 2 -8 6 2 5 11 7 11 15 0 7 -11 11 -11
15 -1 7 19 38 14 59 -9 10 -12 29 -25 42 -30 15 -6 22 -17 22 -36 0 -22 2 -25
10 -13 7 11 10 7 10 -17 0 -17 5 -35 10 -38 6 -3 10 -17 10 -31 0 -14 4 -34
10 -44 8 -15 3 -24 -32 -51 -27 -22 -43 -29 -46 -21 -6 19 -79 15 -92 -5 -11
-17 -11 -17 -6 -1 3 10 1 20 -4 23 -6 4 -10 1 -10 -6 0 -12 -28 -10 -146 10
-34 6 -73 12 -88 13 -14 1 -26 8 -26 15 0 7 -16 15 -35 19 -19 3 -35 11 -35
16 0 6 -6 8 -14 5 -8 -3 -29 -1 -46 6 -24 9 -33 9 -38 0 -9 -14 -38 -11 -54 5
-9 9 -15 9 -26 0 -8 -7 -29 -13 -47 -13 -26 -1 -32 2 -27 14 5 13 3 14 -9 4
-22 -18 -105 -21 -94 -3 3 6 -1 10 -9 10 -9 0 -16 -5 -16 -11 0 -6 -9 -8 -20
-4 -11 3 -27 2 -37 -3 -11 -7 -21 -6 -31 4 -8 8 -22 12 -32 9 -10 -3 -40 0
-66 6 -27 6 -59 11 -71 10 -13 0 -23 3 -23 7 0 8 -35 13 -97 15 -36 1 -44 5
-53 27 -6 15 -10 31 -8 36 5 17 -27 74 -39 70 -6 -3 -14 2 -17 10 -3 8 -10 14
-16 14 -9 0 6 -37 21 -50 9 -8 32 -100 27 -106 -3 -2 -15 -6 -26 -9 -15 -2
-19 0 -15 11 3 8 9 14 14 14 5 0 9 10 9 23 0 18 -4 16 -22 -15 -22 -38 -43
-52 -31 -21 4 11 3 14 -6 9 -6 -4 -9 -16 -6 -26 3 -10 1 -21 -5 -25 -5 -3 -10
-1 -10 4 0 6 -6 11 -14 11 -18 0 -29 42 -14 55 8 7 9 6 6 -5 -3 -8 1 -21 8
-28 12 -11 14 -9 14 6 0 10 -9 27 -19 36 -19 17 -20 17 -31 -3 -6 -12 -17 -21
-25 -21 -21 0 -37 -34 -23 -48 7 -7 8 -15 4 -19 -4 -4 -10 -3 -14 3 -4 6 -31
19 -60 28 -28 10 -50 21 -47 26 3 5 -5 10 -17 12 -12 2 -23 9 -26 17 -3 8 0
11 7 7 14 -9 27 22 14 35 -7 7 -16 5 -26 -5 -16 -17 -37 -21 -37 -8 0 10 -114
72 -134 72 -15 0 -24 19 -8 21 49 5 112 27 112 39 0 9 145 81 158 79 27 -4 55
4 72 21 20 20 19 20 -20 62 l-40 43 21 18 c12 9 26 17 33 16 7 0 7 -2 -1 -6
-7 -2 -13 -10 -13 -16 1 -7 9 -2 18 9 24 29 62 41 62 20 0 -9 -10 -26 -21 -37
-17 -17 -23 -19 -30 -8 -7 11 -9 11 -9 -2 0 -20 47 -31 71 -18 9 4 19 17 21
27 4 16 1 19 -16 15 -17 -4 -18 -3 -6 6 8 6 11 11 7 11 -5 0 -5 5 -1 11 4 8 9
8 17 0 6 -6 19 -11 29 -11 12 0 15 -5 11 -17 -5 -12 -3 -14 7 -8 9 6 11 4 5
-5 -6 -10 -11 -10 -20 4 -11 15 -13 15 -19 1 -3 -9 -2 -13 4 -10 6 3 10 1 10
-4 0 -19 38 -12 45 9 3 11 11 19 18 17 6 -1 12 4 13 11 1 6 2 17 3 22 0 6 8
10 16 10 8 0 15 5 15 11 0 5 -4 8 -9 5 -16 -10 -19 33 -4 46 20 16 78 36 131
44 23 3 45 10 48 15 7 12 34 11 34 -1z m-755 -19 c3 -5 1 -12 -5 -16 -5 -3
-10 1 -10 9 0 18 6 21 15 7z m-1718 -33 c-3 -8 -6 -5 -6 6 -1 11 2 17 5 13 3
-3 4 -12 1 -19z m1230 7 c0 -8 -6 -15 -14 -15 -14 0 -17 12 -6 23 11 11 20 8
20 -8z m3087 -60 c-1 -45 -10 -54 -18 -20 -4 16 -2 33 5 41 15 18 14 19 13
-21z m-2097 -41 c-3 -3 -12 -4 -19 -1 -8 3 -5 6 6 6 11 1 17 -2 13 -5z m985
-79 c8 3 26 2 39 -4 16 -6 31 -5 42 1 13 7 19 5 24 -8 4 -10 2 -19 -5 -22 -16
-5 -15 -27 1 -40 10 -9 19 -8 34 3 20 14 21 13 15 -8 -3 -12 -12 -28 -19 -35
-15 -15 -37 -6 -27 10 4 7 2 8 -5 4 -9 -6 -9 -11 0 -22 6 -8 8 -14 3 -14 -5 0
-9 -16 -10 -36 0 -23 -7 -40 -17 -46 -9 -5 -17 -16 -17 -25 0 -11 -6 -14 -22
-8 -13 3 -29 7 -36 7 -7 1 -11 7 -8 13 2 7 -4 18 -14 25 -14 10 -16 20 -10 46
4 19 4 32 0 29 -10 -6 -23 12 -26 35 -7 41 -12 54 -22 58 -7 2 -12 12 -12 22
0 20 46 32 66 18 6 -5 18 -6 26 -3z m1238 -6 c0 -5 -16 -17 -35 -24 -19 -8
-44 -25 -56 -37 -12 -13 -18 -17 -14 -9 6 11 4 13 -11 7 -10 -5 -28 -11 -39
-14 -11 -3 -24 -11 -28 -19 -4 -7 -15 -13 -23 -13 -9 0 -12 -5 -8 -12 5 -8 2
-9 -10 -5 -10 4 -19 1 -22 -8 -3 -8 -15 -17 -26 -21 -13 -4 -17 -11 -13 -22 3
-9 3 -13 -1 -10 -3 4 -19 1 -35 -8 -16 -8 -29 -11 -29 -7 -1 5 -10 -3 -20 -16
-14 -16 -20 -19 -20 -8 0 20 -17 25 -60 19 -61 -8 -231 -6 -238 4 -4 5 -18 10
-32 12 -33 5 -59 28 -31 28 11 0 17 -5 14 -10 -4 -6 1 -6 13 -1 10 4 75 9 144
10 147 4 165 7 164 29 -1 9 2 16 7 16 5 0 9 -6 10 -12 0 -10 2 -10 6 0 2 6 17
12 32 12 15 0 37 9 49 20 12 12 23 16 27 10 3 -6 11 -10 16 -10 6 0 8 4 4 9
-7 12 25 30 43 24 6 -3 12 2 12 11 0 8 5 18 12 22 6 4 8 3 5 -2 -3 -5 3 -10
14 -10 21 0 25 12 7 20 -7 3 -1 3 14 0 32 -7 57 4 38 16 -8 5 -3 7 13 7 15 -1
27 -5 27 -9 0 -12 39 -4 44 9 6 16 36 18 36 2z m-1115 -49 c3 -5 2 -10 -4 -10
-5 0 -13 5 -16 10 -3 6 -2 10 4 10 5 0 13 -4 16 -10z m797 -32 c-7 -7 -12 -8
-12 -2 0 14 12 26 19 19 2 -3 -1 -11 -7 -17z m-5152 -27 c0 -5 11 -12 25 -15
13 -3 29 -15 35 -26 11 -21 4 -25 -20 -10 -9 5 -19 5 -27 -2 -9 -7 -13 -7 -13
1 0 6 -7 11 -15 11 -8 0 -15 4 -15 8 0 4 -17 6 -37 5 l-38 -4 40 20 c44 22 65
26 65 12z m2629 -82 c17 -6 31 -15 31 -19 0 -11 61 -42 68 -35 3 3 -1 5 -8 5
-7 0 -11 3 -7 6 10 10 68 -36 77 -62 5 -13 16 -24 24 -24 8 0 16 -3 18 -7 2
-5 16 -19 32 -33 16 -14 26 -18 22 -10 -4 8 0 6 8 -4 9 -11 16 -24 16 -29 0
-4 4 -6 9 -3 5 3 15 -1 22 -10 16 -20 105 -65 112 -58 3 3 11 -3 18 -14 7 -11
18 -18 25 -15 7 2 22 -5 33 -16 12 -12 21 -18 21 -15 0 3 6 -1 14 -8 39 -37
56 -47 62 -36 4 7 10 5 15 -5 5 -8 23 -18 39 -22 32 -7 51 -25 26 -25 -22 0
-20 -13 4 -35 11 -10 20 -13 20 -7 0 6 -6 12 -12 15 -7 2 -1 4 14 3 14 0 25
-3 22 -5 -2 -2 4 -10 14 -17 14 -10 15 -15 5 -25 -16 -16 -17 -29 -2 -29 5 0
7 5 4 10 -3 6 -4 10 -1 10 2 0 11 3 20 6 10 4 20 -5 30 -25 15 -29 15 -31 -4
-41 -11 -6 -20 -20 -20 -30 0 -11 -2 -20 -4 -20 -2 0 -13 -3 -23 -7 -17 -7
-17 -6 0 11 9 9 17 22 17 27 0 6 -7 3 -16 -5 -18 -19 -35 -21 -31 -4 1 7 -8
14 -20 16 -13 2 -23 8 -23 13 0 5 -9 9 -21 9 -11 0 -17 5 -14 10 9 14 -8 13
-23 -2 -9 -9 -12 -8 -12 6 0 9 -5 14 -10 11 -6 -3 -13 1 -16 9 -3 8 -16 18
-27 22 -32 10 -47 35 -36 57 7 12 6 19 -4 23 -9 3 -13 13 -10 25 3 11 0 19 -6
19 -7 0 -9 5 -6 10 3 6 -1 10 -10 10 -8 0 -18 7 -21 15 -5 12 -10 13 -19 5
-10 -8 -15 -6 -19 8 -7 20 -52 47 -75 43 -8 -1 -10 2 -5 10 4 8 3 10 -5 5 -6
-4 -17 -4 -24 2 -7 5 -20 12 -31 16 -16 5 -18 2 -13 -20 4 -23 2 -25 -19 -21
-16 3 -24 0 -24 -9 0 -8 -7 -14 -15 -14 -8 0 -15 -7 -15 -15 0 -8 6 -15 14
-15 8 0 18 -5 21 -10 9 -15 -48 0 -57 14 -5 7 -8 5 -8 -6 0 -9 -5 -18 -11 -20
-5 -2 -7 -11 -3 -21 4 -11 13 -16 24 -12 20 7 20 -3 0 -50 -11 -24 -14 -26
-17 -12 -3 10 4 25 14 33 16 13 16 13 1 8 -10 -3 -18 -1 -18 5 0 6 -5 11 -11
11 -6 0 -9 -9 -6 -20 3 -10 -1 -27 -9 -37 -11 -14 -13 -15 -14 -3 0 12 -2 13
-9 1 -5 -8 -14 -10 -22 -6 -9 6 -11 3 -6 -8 3 -10 3 -17 -2 -17 -5 0 -8 -20
-7 -44 1 -25 -1 -44 -4 -43 -10 4 -48 -41 -42 -49 4 -4 1 -4 -5 0 -7 4 -23 0
-35 -8 -12 -9 -30 -16 -40 -16 -9 0 -38 -11 -63 -25 -54 -28 -105 -40 -139
-31 -25 6 -34 22 -41 72 -2 16 -8 58 -14 94 -14 92 -16 183 -4 205 6 10 19 20
29 21 23 3 268 56 271 58 2 1 -17 47 -41 102 -57 131 -59 140 -33 164 24 23
50 25 96 9z m489 -194 c-3 -3 -9 2 -12 12 -6 14 -5 15 5 6 7 -7 10 -15 7 -18z
m-3138 5 c0 -5 -4 -10 -10 -10 -5 0 -10 5 -10 10 0 6 5 10 10 10 6 0 10 -4 10
-10z m1790 1 c0 -6 -4 -13 -10 -16 -5 -3 -10 1 -10 9 0 9 5 16 10 16 6 0 10
-4 10 -9z m1440 -31 c0 -5 -4 -10 -10 -10 -5 0 -10 5 -10 10 0 6 5 10 10 10 6
0 10 -4 10 -10z m405 -37 c-3 -10 0 -10 14 -1 12 7 23 8 36 0 12 -6 26 -7 40
0 15 6 36 6 64 -2 34 -9 45 -18 57 -45 8 -19 13 -53 12 -75 -1 -34 -6 -44 -29
-55 -41 -22 -47 -62 -20 -128 6 -15 13 -49 15 -75 2 -26 4 -49 5 -51 1 -2 18
18 39 44 60 78 166 175 175 162 5 -8 7 -7 5 3 -1 8 6 28 16 43 14 21 21 25 28
15 7 -10 11 -9 19 5 5 9 15 17 20 17 6 0 8 -4 5 -9 -3 -5 8 -11 24 -13 17 -3
30 -2 30 2 0 3 9 6 20 7 13 1 18 -2 13 -10 -5 -9 -3 -9 8 0 8 7 28 11 45 8
l29 -4 -27 12 c-27 11 -38 27 -18 27 6 0 10 5 10 11 0 7 -10 5 -25 -5 -16 -11
-25 -12 -25 -5 0 8 -6 7 -17 -2 -14 -11 -13 -8 2 11 29 37 37 40 75 36 19 -3
50 -5 68 -5 26 -1 32 -5 32 -23 0 -13 -4 -18 -8 -13 -11 16 -91 14 -85 -1 3
-9 15 -11 35 -7 22 4 29 3 24 -5 -4 -6 -1 -21 6 -32 11 -18 10 -23 -7 -36 -11
-8 -33 -18 -48 -21 -16 -3 -31 -12 -34 -19 -3 -8 -10 -14 -15 -14 -6 0 -8 7
-4 15 3 8 3 15 0 15 -3 0 -12 -7 -20 -15 -14 -13 -14 -15 0 -15 17 0 31 -18
21 -28 -3 -3 -10 0 -15 8 -8 13 -10 12 -10 -2 0 -10 5 -18 10 -18 17 0 11 -18
-7 -23 -11 -3 -7 -5 10 -6 26 -1 27 -3 13 -16 -11 -12 -13 -22 -6 -40 6 -16 6
-25 0 -25 -6 0 -10 -8 -10 -17 0 -17 -93 -134 -111 -141 -5 -2 -9 -9 -9 -16 0
-7 -24 -23 -52 -36 -29 -13 -75 -38 -103 -55 -27 -17 -76 -39 -107 -48 -53
-14 -58 -14 -58 1 0 12 -3 13 -12 4 -7 -7 -16 -8 -22 -3 -25 21 -93 10 -79
-12 3 -6 1 -7 -5 -3 -9 5 -9 13 -1 27 6 12 8 23 5 27 -3 3 -6 1 -6 -5 0 -6 -7
-13 -15 -16 -24 -10 13 61 60 114 88 100 92 108 58 108 -64 0 -93 8 -114 34
-11 15 -24 25 -29 22 -4 -3 -13 2 -20 10 -7 8 -17 15 -22 15 -6 0 -4 -8 3 -17
9 -11 3 -10 -18 6 -30 20 -48 41 -23 26 6 -3 10 -2 10 3 0 13 -25 33 -34 27
-3 -3 -1 1 4 8 9 9 15 8 28 -8 28 -34 72 -69 72 -59 0 6 -9 20 -20 32 -11 12
-20 24 -20 27 0 3 -9 16 -20 27 -43 47 -83 167 -52 161 13 -3 16 9 5 21 -4 3
-8 17 -10 29 -2 19 -2 20 8 5 5 -10 17 -18 25 -18 10 0 12 -5 8 -12 -6 -10 -4
-10 8 0 19 15 12 56 -8 48 -7 -3 -18 3 -23 12 -8 12 -10 13 -11 3 0 -21 -13
-4 -16 22 -2 12 0 16 2 10 3 -7 13 -13 22 -13 12 0 13 3 4 12 -18 18 -15 28 8
28 10 0 25 6 32 13 16 18 70 17 63 0z m1078 -80 c-7 -2 -13 -11 -13 -19 0 -9
-4 -12 -10 -9 -5 3 -10 1 -10 -6 0 -7 -3 -9 -7 -6 -3 4 -15 -5 -25 -20 -10
-16 -18 -23 -18 -16 0 6 5 15 10 18 6 3 10 10 10 16 0 16 -22 10 -41 -13 -11
-11 -19 -16 -19 -10 0 16 29 42 48 42 9 1 28 7 42 15 14 8 30 14 35 14 6 0 4
-3 -2 -6z m-1482 -30 c13 -15 12 -15 -8 -4 -24 12 -29 21 -14 21 5 0 15 -7 22
-17z m956 6 c-23 -13 -82 -31 -74 -22 13 12 52 29 72 30 19 2 19 1 2 -8z m607
-28 c-10 -7 -11 -11 -19 -129 -9 -125 -45 -189 -87 -158 -10 7 -14 16 -10 20
4 5 0 7 -8 5 -17 -3 -90 26 -90 36 0 3 6 3 13 0 6 -4 3 1 -8 9 -11 9 -25 14
-33 11 -8 -3 -10 0 -6 6 4 8 -1 9 -15 4 -14 -4 -21 -3 -19 5 2 7 -3 15 -11 18
-9 3 -11 0 -6 -7 5 -9 1 -9 -14 1 -14 9 -19 19 -15 33 4 11 7 20 8 21 0 0 13
8 28 17 15 9 36 17 46 17 10 0 40 14 68 32 54 35 164 79 178 71 4 -3 4 -8 0
-12z m-3639 -32 c30 -11 55 -25 55 -30 0 -5 6 -9 14 -9 22 0 46 -29 40 -48 -5
-13 -4 -14 4 -3 7 10 11 10 17 1 5 -8 11 -6 21 7 14 16 14 15 8 -17 -9 -45
-22 -66 -51 -79 -32 -15 -53 -14 -53 2 0 9 -2 9 -9 -1 -6 -9 -19 -11 -45 -7
-27 6 -36 4 -36 -6 0 -11 -2 -11 -10 1 -5 8 -12 11 -16 8 -3 -4 -19 -1 -35 7
-20 11 -30 12 -35 4 -9 -15 -25 11 -19 31 6 21 -10 44 -25 35 -10 -6 -9 -11 5
-22 11 -7 14 -13 7 -13 -6 0 -9 -7 -5 -17 3 -12 -1 -10 -12 5 -9 13 -18 34
-19 46 0 13 -8 23 -19 23 -9 1 -15 -2 -12 -8 4 -5 1 -9 -4 -9 -15 0 -14 16 5
51 10 20 21 29 30 25 8 -3 27 -1 42 5 15 6 29 11 32 11 3 0 14 7 25 14 26 18
34 18 100 -7z m4255 -3 c0 -3 -4 -8 -10 -11 -5 -3 -10 -1 -10 4 0 6 5 11 10
11 6 0 10 -2 10 -4z m30 -6 c0 -5 -2 -10 -4 -10 -3 0 -8 5 -11 10 -3 6 -1 10
4 10 6 0 11 -4 11 -10z m-5307 -27 c-7 -2 -19 -2 -25 0 -7 3 -2 5 12 5 14 0
19 -2 13 -5z m4217 -17 c0 -3 -4 -8 -10 -11 -5 -3 -10 -1 -10 4 0 6 5 11 10
11 6 0 10 -2 10 -4z m-39 -20 c-9 -11 -9 -15 1 -19 7 -3 3 -4 -9 -4 -21 1 -21
2 -6 19 19 21 31 24 14 4z m1374 -25 c-11 -5 -36 -11 -55 -14 -35 -6 -34 -6 5
8 43 14 84 19 50 6z m-98 -27 c-3 -3 -12 -4 -19 -1 -8 3 -5 6 6 6 11 1 17 -2
13 -5z m-70 -20 c-3 -3 -12 -4 -19 -1 -8 3 -5 6 6 6 11 1 17 -2 13 -5z m-3583
-37 c18 -17 22 -27 14 -38 -8 -11 -9 -10 -4 4 4 12 2 17 -6 15 -7 -3 -13 -14
-14 -25 -2 -34 -13 -44 -35 -33 -11 6 -17 15 -14 21 4 5 1 9 -5 9 -7 0 -10 -7
-7 -15 8 -20 -8 -28 -23 -10 -9 10 -9 15 -1 15 6 0 11 7 11 16 0 8 5 12 10 9
6 -3 10 0 10 8 0 11 -7 13 -22 9 -21 -5 -22 -4 -9 12 10 12 24 16 42 14 16 -3
26 -1 23 4 -10 15 5 8 30 -15z m1016 -39 c0 -23 20 -34 31 -17 7 11 9 10 9 -4
0 -10 4 -16 9 -13 9 6 21 -16 21 -39 0 -8 -20 -18 -50 -24 -62 -13 -63 -13
-55 -1 7 11 -8 14 -19 3 -7 -8 -79 -5 -110 4 -15 4 -16 7 -5 14 8 5 9 9 3 9
-6 0 -17 -6 -24 -14 -6 -8 -18 -12 -25 -9 -10 3 -2 17 27 48 23 24 46 42 50
39 4 -3 5 3 2 13 -5 16 -4 16 10 -1 14 -17 16 -18 16 -3 0 9 7 17 15 17 9 0
18 6 21 13 7 20 73 -12 74 -35z m-1480 21 c0 -15 -18 -19 -23 -6 -3 8 1 14 9
14 8 0 14 -4 14 -8z m1497 -31 c-3 -7 -5 -2 -5 12 0 14 2 19 5 13 2 -7 2 -19
0 -25z m-1263 -6 c18 -24 18 -24 -1 -14 -28 16 -46 39 -30 39 7 0 21 -11 31
-25z m1741 18 c-3 -5 -11 -10 -16 -10 -6 0 -7 5 -4 10 3 6 11 10 16 10 6 0 7
-4 4 -10z m-2625 -22 c0 -10 -9 -9 -35 2 -17 8 -16 8 8 7 15 -1 27 -5 27 -9z
m50 -8 c0 -13 -11 -13 -30 0 -12 8 -11 10 8 10 12 0 22 -4 22 -10z m58 -7
c-10 -2 -26 -2 -35 0 -10 3 -2 5 17 5 19 0 27 -2 18 -5z m1787 -32 c-4 -15
-14 -21 -33 -20 -26 0 -26 0 -4 9 12 5 25 17 28 25 9 23 17 10 9 -14z m3025
-351 c0 -5 -5 -10 -11 -10 -5 0 -7 5 -4 10 3 6 8 10 11 10 2 0 4 -4 4 -10z
m111 -17 c-12 -20 -14 -14 -5 12 4 9 9 14 11 11 3 -2 0 -13 -6 -23z m-4191 7
c20 -13 10 -19 -22 -13 -15 3 -25 9 -22 14 7 12 25 11 44 -1z m-563 -46 c-3
-3 -12 -4 -19 -1 -8 3 -5 6 6 6 11 1 17 -2 13 -5z m-729 -99 c3 -3 -13 -5 -36
-5 -22 0 -44 5 -47 10 -6 10 73 5 83 -5z m42 -67 c0 -6 -6 -5 -15 2 -8 7 -15
14 -15 16 0 2 7 1 15 -2 8 -4 15 -11 15 -16z m77 -1 c4 -7 0 -8 -11 -4 -10 4
-27 7 -37 7 -11 0 -18 4 -15 9 7 11 54 2 63 -12z m-963 -23 c5 -14 4 -15 -9
-4 -17 14 -19 20 -6 20 5 0 12 -7 15 -16z m246 6 c0 -4 -22 -7 -50 -9 -27 -1
-50 2 -50 6 0 4 23 8 50 8 28 1 50 -2 50 -5z m40 -5 c11 -13 10 -14 -4 -9 -9
3 -16 10 -16 15 0 13 6 11 20 -6z m425 6 l-30 -7 38 -5 c23 -3 45 0 55 7 14
10 22 10 41 -3 17 -11 21 -12 15 -2 -6 11 -5 12 8 2 8 -7 17 -10 20 -8 10 11
49 14 42 4 -3 -6 5 -7 23 -3 20 5 25 3 18 -4 -11 -12 -151 -16 -222 -7 -26 3
-43 1 -43 -5 0 -6 6 -10 13 -10 8 0 7 -3 -3 -10 -8 -5 -17 -5 -20 -1 -7 11
-50 21 -50 11 0 -5 10 -10 23 -12 20 -3 20 -4 -5 -9 -15 -4 -25 -2 -22 2 3 5
0 9 -6 9 -6 0 -10 -8 -8 -17 2 -10 11 -16 19 -14 8 2 33 5 56 6 22 2 46 6 53
10 6 4 17 1 25 -5 8 -7 15 -9 15 -5 0 4 7 2 15 -5 13 -10 15 -9 15 9 0 19 -3
20 -20 11 -11 -6 -20 -7 -20 -2 0 14 43 23 50 11 4 -5 14 -7 23 -3 19 7 23
-11 5 -22 -7 -5 -8 -3 -3 6 5 9 4 11 -4 6 -9 -6 -9 -11 -1 -21 9 -10 7 -16 -8
-24 -11 -6 -21 -8 -24 -6 -3 3 -5 -2 -5 -10 0 -11 4 -12 13 -4 7 6 18 8 24 4
6 -4 9 -1 8 6 -2 6 3 14 11 17 8 3 11 0 7 -7 -5 -7 -1 -9 9 -5 12 5 14 2 8
-12 -6 -16 -5 -17 9 -4 9 8 14 18 12 22 -2 3 2 9 8 12 7 4 3 4 -9 2 -25 -4
-41 23 -21 36 18 11 38 10 38 -2 0 -5 13 -10 30 -10 22 0 28 4 24 15 -4 8 -1
15 5 15 6 0 10 -6 8 -12 -1 -8 14 -15 38 -19 22 -3 30 -7 18 -8 -24 -1 -30
-15 -13 -26 15 -9 -7 -35 -24 -29 -7 3 -28 -2 -47 -11 -32 -15 -20 -14 34 2
18 5 20 4 10 -8 -10 -12 -4 -14 38 -12 27 1 49 -3 49 -8 0 -5 8 -9 18 -9 14 0
15 2 2 10 -13 9 -13 11 0 20 11 8 6 10 -22 8 -21 -1 -38 -6 -38 -11 0 -4 -4
-6 -10 -2 -5 3 -7 12 -4 19 4 9 18 12 48 9 25 -3 46 -1 50 5 4 7 -8 9 -34 7
-22 -2 -38 0 -36 4 3 4 26 8 51 9 46 0 46 0 29 -20 -15 -15 -16 -21 -5 -27 12
-8 83 3 104 16 6 3 7 1 3 -5 -4 -7 -15 -13 -24 -13 -9 -1 -1 -5 18 -9 28 -6
21 -7 -33 -8 -37 0 -74 -5 -81 -11 -7 -6 -27 -8 -45 -5 -41 8 -40 -3 2 -15
l32 -9 -33 -1 c-19 -1 -35 -7 -38 -16 -5 -11 -10 -13 -19 -5 -9 7 -16 5 -26
-7 -12 -15 -12 -16 4 -10 9 3 17 2 17 -3 0 -6 7 -10 15 -10 8 0 15 4 15 9 0 5
15 5 35 1 20 -4 38 -4 41 1 3 5 15 9 27 8 l22 0 -22 -9 c-13 -5 -23 -15 -23
-22 0 -9 2 -10 8 -2 4 7 27 12 52 11 60 0 179 11 191 18 5 4 15 3 22 -2 8 -5
2 -10 -18 -13 -16 -4 20 -7 80 -8 120 -2 161 -6 188 -17 10 -4 24 -2 32 5 12
10 18 10 29 1 10 -9 16 -9 21 -1 4 7 11 8 18 2 18 -14 128 -22 149 -11 14 7
24 7 34 -2 11 -9 20 -9 40 0 21 9 30 9 42 -1 13 -11 8 -14 -34 -18 -27 -3 -57
-2 -66 2 -9 5 -20 4 -23 -2 -4 -6 -68 -10 -163 -11 -86 0 -186 -2 -222 -4
-117 -9 -413 -19 -520 -18 -373 3 -526 6 -605 14 -49 4 -134 9 -187 10 -54 1
-98 5 -98 10 0 5 10 9 23 9 67 0 268 10 307 15 35 5 48 12 56 30 20 41 -2 58
-72 57 -32 -1 -72 2 -89 8 -29 10 -29 10 8 6 27 -4 36 -2 31 7 -4 7 -4 9 1 5
4 -4 20 -1 35 7 15 8 30 11 34 8 3 -4 6 -1 6 6 0 8 -13 10 -44 6 -36 -5 -46
-3 -56 12 -10 17 -11 17 -6 -2 5 -18 0 -20 -47 -22 -45 -1 -49 0 -27 9 14 6
33 10 43 9 9 -1 17 3 17 8 0 6 -5 10 -11 8 -6 -1 -13 3 -15 8 -2 6 14 10 39
10 23 -1 48 3 55 8 7 6 12 6 12 1 0 -5 27 -10 60 -11 38 -1 58 2 54 9 -3 5
-17 7 -30 4 -13 -4 -35 -4 -49 0 l-26 6 27 14 c15 8 32 13 38 10 6 -2 3 -5 -6
-5 -10 -1 -18 -6 -18 -12 0 -5 5 -7 11 -4 6 4 39 7 74 6 55 -1 63 2 68 19 5
20 -7 28 -18 11 -6 -11 -44 -9 -64 4 -10 5 -12 4 -7 -3 4 -7 1 -12 -7 -12 -7
0 -14 7 -14 16 0 12 7 14 28 10 18 -3 34 0 44 10 8 9 15 11 15 5 0 -15 49 -6
68 12 11 11 31 17 62 16 40 -1 42 -2 15 -8z m-675 -11 c0 -5 -4 -10 -10 -10
-5 0 -10 5 -10 10 0 6 5 10 10 10 6 0 10 -4 10 -10z m50 0 c0 -5 -2 -10 -4
-10 -3 0 -8 5 -11 10 -3 6 -1 10 4 10 6 0 11 -4 11 -10z m50 6 c0 -2 -9 -6
-20 -9 -11 -3 -20 -1 -20 4 0 5 9 9 20 9 11 0 20 -2 20 -4z m210 -1 c0 -2 -9
-9 -20 -15 -15 -8 -20 -8 -20 3 0 7 9 13 20 14 11 1 20 0 20 -2z m25 -4 c3 -5
1 -12 -5 -16 -5 -3 -10 1 -10 9 0 18 6 21 15 7z m605 -6 c0 -8 -2 -15 -4 -15
-2 0 -6 7 -10 15 -3 8 -1 15 4 15 6 0 10 -7 10 -15z m-835 -25 c3 -5 1 -10 -4
-10 -6 0 -11 5 -11 10 0 6 2 10 4 10 3 0 8 -4 11 -10z m100 0 c-3 -5 -14 -10
-23 -9 -14 0 -13 2 3 9 27 11 27 11 20 0z m133 -20 c-7 -11 -19 -20 -26 -20
-7 0 -10 5 -7 10 3 6 2 10 -4 10 -5 0 -13 -4 -16 -10 -3 -5 -13 -10 -21 -10
-27 0 9 28 42 33 16 2 32 5 37 6 4 0 2 -8 -5 -19z m649 14 c-3 -3 -12 -4 -19
-1 -8 3 -5 6 6 6 11 1 17 -2 13 -5z m-930 -30 c-3 -3 -12 -4 -19 -1 -8 3 -5 6
6 6 11 1 17 -2 13 -5z m110 -8 c0 -10 -8 -12 -28 -6 -15 5 -31 5 -35 2 -4 -4
-5 -2 -2 3 9 16 65 16 65 1z m-180 -2 c-3 -3 -12 -4 -19 -1 -8 3 -5 6 6 6 11
1 17 -2 13 -5z m1023 -8 c0 -11 -19 -15 -25 -6 -3 5 1 10 9 10 9 0 16 -2 16
-4z m-785 -25 c-3 -6 -13 -11 -22 -11 -9 0 -24 -7 -34 -16 -17 -16 -18 -15 -6
9 7 16 22 27 37 29 30 4 34 2 25 -11z m910 0 c-3 -6 -11 -11 -16 -11 -5 0 -4
6 3 14 14 16 24 13 13 -3z m-1131 1 c3 -5 -1 -9 -9 -9 -8 0 -15 4 -15 9 0 4 4
8 9 8 6 0 12 -4 15 -8z m57 -3 c-16 -6 -28 -6 -35 1 -7 7 1 10 25 9 32 0 33
-1 10 -10z m43 -4 c-25 -19 -38 -19 -22 0 7 8 19 14 27 15 11 0 9 -4 -5 -15z
m1046 -69 c0 -7 -40 -14 -44 -7 -3 4 6 8 20 9 13 1 24 0 24 -2z m-775 -36 c-3
-5 -11 -10 -16 -10 -6 0 -7 5 -4 10 3 6 11 10 16 10 6 0 7 -4 4 -10z m695 -6
c0 -2 -9 -4 -20 -4 -11 0 -20 4 -20 9 0 5 9 7 20 4 11 -3 20 -7 20 -9z m380 7
c0 -17 -18 -21 -24 -6 -3 9 0 15 9 15 8 0 15 -4 15 -9z m577 -77 c-3 -3 -12
-4 -19 -1 -8 3 -5 6 6 6 11 1 17 -2 13 -5z"/>
<path d="M3778 5343 c7 -3 16 -2 19 1 4 3 -2 6 -13 5 -11 0 -14 -3 -6 -6z"/>
<path d="M4240 5246 c0 -2 8 -10 18 -17 15 -13 16 -12 3 4 -13 16 -21 21 -21
13z"/>
<path d="M4300 5240 c0 -5 5 -10 11 -10 5 0 7 5 4 10 -3 6 -8 10 -11 10 -2 0
-4 -4 -4 -10z"/>
<path d="M5167 3876 c-4 -10 -5 -21 -2 -24 9 -9 17 6 13 25 -3 17 -4 17 -11
-1z"/>
<path d="M5567 3173 c-4 -3 -7 -11 -7 -17 0 -6 5 -5 12 2 6 6 9 14 7 17 -3 3
-9 2 -12 -2z"/>
<path d="M5510 3100 c0 -5 5 -10 11 -10 5 0 7 5 4 10 -3 6 -8 10 -11 10 -2 0
-4 -4 -4 -10z"/>
<path d="M1887 5273 c-4 -3 -7 -12 -7 -20 0 -15 26 -18 34 -4 7 11 -18 33 -27
24z"/>
<path d="M1945 5270 c3 -5 8 -10 11 -10 2 0 4 5 4 10 0 6 -5 10 -11 10 -5 0
-7 -4 -4 -10z"/>
<path d="M1835 5240 c-10 -11 -16 -20 -13 -20 3 0 15 9 28 20 13 11 19 20 13
20 -5 0 -18 -9 -28 -20z"/>
<path d="M1910 5220 c-14 -11 -20 -20 -14 -20 6 0 19 9 29 20 23 25 17 25 -15
0z"/>
<path d="M1818 5182 c-21 -9 -38 -20 -38 -24 0 -13 18 -9 34 7 8 8 19 15 25
15 5 0 13 5 16 10 8 12 8 13 -37 -8z"/>
<path d="M1925 5171 c-3 -5 -1 -12 5 -16 5 -3 10 1 10 9 0 18 -6 21 -15 7z"/>
<path d="M2157 5155 c-4 -8 -2 -17 4 -20 5 -4 6 -11 3 -17 -4 -7 -2 -8 4 -4 7
4 11 18 10 31 -3 28 -13 33 -21 10z"/>
<path d="M2071 5138 c-1 -20 14 -24 25 -6 4 6 3 8 -4 4 -5 -3 -13 0 -15 6 -3
8 -6 6 -6 -4z"/>
<path d="M1755 5130 c-19 -8 -19 -9 3 -9 12 -1 22 4 22 9 0 6 -1 10 -2 9 -2 0
-12 -4 -23 -9z"/>
<path d="M1647 5123 c-4 -3 -7 -11 -7 -17 0 -6 5 -5 12 2 6 6 9 14 7 17 -3 3
-9 2 -12 -2z"/>
<path d="M1826 5088 c-9 -47 8 -55 32 -14 15 25 17 33 6 29 -8 -3 -14 0 -14 6
0 25 -18 9 -24 -21z"/>
<path d="M2135 5110 c-3 -5 -1 -10 4 -10 6 0 11 5 11 10 0 6 -2 10 -4 10 -3 0
-8 -4 -11 -10z"/>
<path d="M2380 5095 c-9 -11 -10 -19 -3 -26 7 -7 15 -4 24 7 12 15 12 17 0 9
-11 -6 -13 -4 -8 8 8 21 3 22 -13 2z"/>
<path d="M2337 5086 c-4 -10 -1 -13 9 -9 7 3 14 9 14 14 0 14 -17 10 -23 -5z"/>
<path d="M1905 5043 c-15 -27 -37 -60 -49 -74 -11 -14 -2 -5 21 20 23 24 47
57 52 73 14 41 7 35 -24 -19z"/>
<path d="M2660 5040 c0 -5 5 -10 11 -10 5 0 7 5 4 10 -3 6 -8 10 -11 10 -2 0
-4 -4 -4 -10z"/>
<path d="M2976 4935 c-3 -8 -1 -15 3 -15 5 0 11 7 15 15 3 8 1 15 -3 15 -5 0
-11 -7 -15 -15z"/>
<path d="M3020 4910 c-9 -6 -10 -10 -3 -10 6 0 15 5 18 10 8 12 4 12 -15 0z"/>
<path d="M3327 4789 c4 -13 8 -18 11 -10 2 7 -1 18 -6 23 -8 8 -9 4 -5 -13z"/>
<path d="M3316 4684 c-4 -20 -5 -38 -3 -40 3 -3 8 11 11 32 4 20 5 38 3 40 -3
3 -8 -11 -11 -32z"/>
<path d="M3777 4689 c4 -13 8 -18 11 -10 2 7 -1 18 -6 23 -8 8 -9 4 -5 -13z"/>
<path d="M3908 4703 c7 -3 16 -2 19 1 4 3 -2 6 -13 5 -11 0 -14 -3 -6 -6z"/>
<path d="M3015 4668 c4 -18 13 -46 20 -63 l13 -30 1 28 c1 29 -23 97 -34 97
-4 0 -3 -15 0 -32z"/>
<path d="M3525 4660 c4 -14 12 -28 18 -31 6 -4 8 -33 5 -70 -2 -35 -2 -75 2
-89 6 -22 9 -18 24 33 20 65 15 88 -31 149 -22 29 -24 30 -18 8z"/>
<path d="M3146 4600 c14 -28 56 -80 65 -80 5 0 0 10 -10 23 -54 62 -62 71 -55
57z"/>
<path d="M3421 4515 c47 -100 60 -125 69 -125 16 0 12 14 -15 54 -14 20 -25
41 -25 45 0 5 -7 15 -17 22 -9 8 -14 10 -12 4z"/>
<path d="M3847 4498 c6 -7 14 -26 18 -43 17 -60 25 -75 44 -75 12 0 10 5 -9
20 -14 11 -20 20 -14 20 14 0 -25 90 -39 90 -6 0 -5 -5 0 -12z"/>
<path d="M2045 4383 c-3 -14 -22 -49 -42 -79 -20 -30 -33 -57 -30 -61 4 -3 7
-1 7 6 0 6 11 16 25 21 14 5 25 17 25 27 1 21 31 81 42 83 56 11 63 25 14 26
-29 0 -36 -4 -41 -23z"/>
<path d="M2107 4373 c-5 -7 -6 -17 -2 -22 3 -6 -4 -15 -15 -21 -11 -6 -18 -15
-15 -20 3 -5 -9 -18 -25 -30 -35 -25 -34 -38 2 -19 l23 12 -20 -24 -20 -24 28
24 c20 18 24 27 15 33 -10 6 -10 8 -1 8 16 0 45 56 41 78 -3 13 -6 14 -11 5z"/>
<path d="M3871 4360 c-1 -23 15 -45 23 -31 4 6 3 11 -3 11 -5 0 -12 8 -14 18
-3 12 -5 13 -6 2z"/>
<path d="M3996 4331 c-3 -5 1 -11 9 -15 8 -3 15 -1 15 4 0 13 -18 22 -24 11z"/>
<path d="M3905 4310 c3 -5 8 -10 11 -10 2 0 4 5 4 10 0 6 -5 10 -11 10 -5 0
-7 -4 -4 -10z"/>
<path d="M1880 4304 c0 -7 -8 -11 -17 -10 -29 2 -20 -27 18 -61 41 -37 53 -39
89 -17 25 15 25 15 1 10 -25 -5 -71 12 -71 27 0 5 7 4 15 -3 23 -19 18 2 -10
35 -13 17 -24 25 -25 19z"/>
<path d="M2528 4299 c-16 -9 -16 -11 0 -39 20 -35 33 -39 24 -8 -4 16 -2 20
10 16 19 -8 39 4 30 18 -11 17 -45 24 -64 13z"/>
<path d="M2730 4281 c0 -5 6 -11 13 -14 8 -3 14 1 14 9 0 8 -6 14 -14 14 -7 0
-13 -4 -13 -9z"/>
<path d="M2127 4253 c-6 -16 -21 -36 -32 -45 -12 -10 -15 -17 -7 -18 6 0 12 5
12 10 0 6 11 8 25 6 21 -4 26 0 33 27 15 53 -9 67 -31 20z"/>
<path d="M2620 4265 c7 -9 15 -13 17 -11 7 7 -7 26 -19 26 -6 0 -6 -6 2 -15z"/>
<path d="M2210 4260 c-8 -5 -12 -12 -9 -15 8 -8 39 5 39 16 0 11 -11 11 -30
-1z"/>
<path d="M2271 4251 c-12 -7 -12 -25 -5 -100 l10 -91 -28 -31 -28 -31 21 -29
20 -29 -25 0 c-17 0 -29 8 -38 27 -7 15 -21 29 -31 31 -14 3 -17 -2 -13 -24 3
-15 12 -32 21 -36 8 -5 15 -20 15 -33 0 -19 -5 -23 -22 -22 -35 3 -56 19 -63
48 -5 20 0 31 19 50 14 13 26 29 26 36 0 18 39 26 56 12 8 -6 17 -9 21 -6 8 8
-17 38 -27 32 -4 -2 -5 7 -2 20 5 28 1 29 -48 9 -19 -8 -25 -12 -13 -10 37 7
38 -14 3 -44 -36 -31 -79 -44 -96 -29 -8 6 -26 0 -53 -18 -36 -23 -41 -31 -41
-64 0 -31 -4 -38 -24 -43 -15 -4 -26 -15 -29 -29 -3 -16 -5 -14 -6 10 -1 30
12 52 22 36 2 -5 2 -1 0 7 -3 8 -6 22 -8 30 -2 8 -7 24 -10 35 -7 18 -7 19 6
3 17 -21 43 -9 33 15 -4 11 -17 17 -36 17 -25 0 -28 2 -19 14 9 10 9 16 1 21
-6 4 -9 12 -7 18 2 7 -2 20 -11 30 -22 25 -9 30 16 7 25 -23 31 -7 6 17 -12
12 -20 13 -39 5 -19 -9 -23 -8 -19 3 8 20 33 26 55 15 16 -9 19 -7 19 9 0 40
-11 51 -51 51 -32 0 -48 -8 -82 -39 -62 -56 -79 -59 -112 -16 -15 20 -24 43
-21 50 3 8 1 15 -4 15 -13 0 -13 -37 0 -45 5 -3 6 -13 3 -22 -5 -12 -9 -10
-20 11 -18 35 -22 33 -14 -6 6 -28 12 -34 41 -38 37 -5 33 -13 -12 -24 -16 -4
-28 -2 -28 3 0 6 -11 6 -30 0 -35 -13 -31 -28 8 -30 17 -1 21 -3 10 -6 -10 -2
-18 -11 -18 -19 0 -18 -63 -19 -78 -1 -8 10 -2 22 24 50 18 21 34 43 34 50 0
8 -3 8 -12 -1 -17 -17 -31 -15 -24 4 3 8 2 12 -4 9 -6 -3 -10 -14 -10 -24 0
-10 -8 -25 -19 -35 -24 -22 -16 -65 15 -76 15 -6 24 -18 24 -31 0 -21 1 -21
18 -6 10 10 26 17 34 17 9 0 18 6 21 13 3 8 18 13 36 12 35 -2 33 -1 48 -35
12 -24 12 -24 7 5 -5 26 -2 31 14 31 12 0 20 -3 20 -6 0 -3 0 -17 1 -32 2 -41
18 -34 19 8 1 20 8 47 17 60 15 23 17 23 43 10 32 -17 92 -82 92 -101 0 -8 -4
-17 -10 -20 -10 -6 -4 -160 6 -177 9 -15 24 3 24 28 0 15 6 24 15 24 8 0 15
-6 15 -14 0 -8 7 -17 16 -20 12 -5 14 -1 9 15 -6 19 -4 21 18 17 41 -8 81 40
87 102 1 9 5 5 11 -9 12 -29 4 -55 -23 -80 -15 -15 -18 -23 -10 -38 10 -17 11
-16 20 7 5 14 17 42 25 63 9 21 12 37 6 37 -6 0 -8 4 -4 10 3 5 12 7 20 4 16
-7 12 -45 -11 -107 -8 -20 -14 -47 -13 -60 0 -21 1 -21 10 -2 5 11 14 34 20
50 6 17 13 25 16 18 2 -6 -8 -41 -22 -78 -24 -59 -25 -70 -14 -98 13 -33 57
-87 71 -87 4 0 8 6 8 13 0 12 65 77 76 77 2 0 4 -7 4 -15 0 -8 3 -15 8 -15 8
0 29 30 30 44 0 5 5 12 11 16 8 4 7 19 -4 50 -20 56 -13 62 12 10 l19 -41 36
53 c53 78 55 93 20 128 -17 16 -32 27 -35 22 -2 -4 -2 -1 -1 6 2 6 -3 12 -11
12 -8 0 -15 5 -15 11 0 5 6 7 13 3 10 -6 10 -4 0 7 -7 7 -13 18 -13 24 1 5 11
-2 23 -16 22 -26 73 -64 92 -69 6 -2 17 -5 26 -7 21 -6 43 -135 34 -196 l-6
-42 26 50 c15 28 38 67 52 88 30 43 25 59 -7 27 -12 -12 -23 -20 -24 -18 -1 1
-12 26 -24 53 -22 48 -22 49 -1 23 11 -16 28 -28 37 -28 15 0 15 2 2 10 -10 7
-11 10 -2 10 7 0 18 12 24 28 7 15 18 34 25 43 12 14 11 24 -5 65 -15 38 -17
54 -9 72 6 13 16 21 23 18 8 -3 21 14 34 42 12 26 26 55 31 65 6 10 6 17 0 17
-5 0 -12 14 -16 31 -6 26 -11 30 -30 25 -14 -4 -27 0 -35 9 -29 35 -42 -3 -15
-43 14 -20 14 -21 0 -16 -8 3 -15 12 -15 20 0 8 -5 14 -11 14 -7 0 -8 -7 -4
-17 3 -10 8 -33 11 -52 3 -25 1 -32 -10 -28 -12 5 -110 -69 -128 -96 -4 -7
-10 -8 -14 -5 -4 4 1 19 10 32 22 34 20 88 -4 138 -11 23 -20 47 -20 54 0 6
-21 14 -46 18 -60 8 -66 8 -83 -3z m379 -56 c7 -8 8 -15 2 -15 -5 0 -15 7 -22
15 -7 8 -8 15 -2 15 5 0 15 -7 22 -15z m-47 -65 c3 -11 2 -20 -3 -20 -4 0 -10
9 -13 20 -3 11 -2 20 3 20 4 0 10 -9 13 -20z m-23 -40 c0 -5 -2 -10 -4 -10 -3
0 -8 5 -11 10 -3 6 -1 10 4 10 6 0 11 -4 11 -10z m-890 -49 c-12 -24 -33 -32
-51 -20 -11 7 -11 9 3 9 10 0 22 9 28 20 6 11 15 18 21 15 6 -4 5 -13 -1 -24z
m820 -6 c-7 -9 -15 -13 -19 -10 -3 3 1 10 9 15 21 14 24 12 10 -5z m-240 -53
c0 -7 -4 -10 -10 -7 -5 3 -10 16 -10 28 0 18 2 19 10 7 5 -8 10 -21 10 -28z
m261 7 c-35 -21 -41 -23 -41 -11 0 11 53 41 63 35 5 -3 -5 -14 -22 -24z m-177
-25 c3 -8 2 -12 -4 -9 -6 3 -10 10 -10 16 0 14 7 11 14 -7z m-119 -44 c3 -5 1
-18 -5 -27 -9 -15 -11 -15 -7 -2 3 9 0 22 -6 28 -8 8 -8 11 0 11 7 0 15 -4 18
-10z m45 -10 c0 -5 -2 -10 -4 -10 -3 0 -8 5 -11 10 -3 6 -1 10 4 10 6 0 11 -4
11 -10z m-26 -46 c3 -8 2 -12 -4 -9 -6 3 -10 10 -10 16 0 14 7 11 14 -7z m76
-17 c0 -18 -2 -19 -10 -7 -13 20 -13 43 0 35 6 -3 10 -16 10 -28z m-170 -22
c15 5 17 2 13 -15 -3 -11 -8 -20 -12 -20 -14 0 -31 25 -30 45 1 17 2 17 6 2 3
-12 11 -16 23 -12z m51 -68 c-8 -8 -11 -5 -12 11 -1 12 -2 28 -3 35 -1 6 2 21
8 32 10 17 11 14 14 -24 2 -24 -2 -49 -7 -54z m99 53 c0 -5 -4 -10 -10 -10 -5
0 -10 5 -10 10 0 6 5 10 10 10 6 0 10 -4 10 -10z m-32 -41 c-17 -9 -16 -13 2
-61 l20 -52 -30 32 c-18 20 -34 30 -44 26 -9 -3 -16 -1 -16 5 0 6 7 11 15 11
8 0 15 6 15 14 0 14 42 47 50 39 3 -2 -3 -9 -12 -14z m-91 -31 c-3 -8 -6 -5
-6 6 -1 11 2 17 5 13 3 -3 4 -12 1 -19z m-37 -23 c0 -14 -4 -25 -10 -25 -11 0
-14 33 -3 43 11 11 13 8 13 -18z"/>
<path d="M1515 4222 c-22 -30 -30 -62 -15 -62 6 0 10 7 10 15 0 8 7 15 15 15
8 0 15 4 15 9 0 13 75 29 93 20 10 -6 19 -3 28 7 11 14 7 15 -44 13 -31 -1
-60 0 -64 4 -11 11 -17 8 -38 -21z"/>
<path d="M1436 4183 c-4 -4 -22 -6 -41 -5 -18 2 -36 -1 -39 -6 -3 -5 16 -10
42 -11 25 -1 51 -6 56 -11 16 -16 24 -12 24 15 0 14 -4 25 -9 25 -5 0 -9 -4
-9 -10 0 -5 -5 -10 -11 -10 -5 0 -7 5 -4 10 7 12 2 13 -9 3z"/>
<path d="M1954 4156 c-8 -22 3 -33 18 -18 9 9 9 15 0 24 -9 9 -13 7 -18 -6z"/>
<path d="M2030 4160 c-8 -5 -10 -10 -5 -10 6 0 17 5 25 10 8 5 11 10 5 10 -5
0 -17 -5 -25 -10z"/>
<path d="M2120 4160 c0 -5 4 -10 9 -10 6 0 13 5 16 10 3 6 -1 10 -9 10 -9 0
-16 -4 -16 -10z"/>
<path d="M2210 4139 c0 -16 -4 -20 -17 -15 -17 7 -17 6 -2 -9 11 -11 24 -15
37 -11 17 6 18 10 8 31 -14 30 -26 32 -26 4z"/>
<path d="M2028 4129 c-31 -16 -38 -25 -38 -49 0 -22 -5 -30 -17 -30 -15 0 -16
-2 -3 -10 13 -8 13 -10 -2 -10 -27 0 -29 16 -7 44 25 32 23 36 -13 29 -20 -4
-27 -12 -31 -36 -5 -37 18 -79 41 -75 9 2 25 21 36 43 13 25 29 41 43 43 11 2
23 12 26 23 3 10 10 19 15 19 6 0 8 -10 4 -22 l-5 -22 31 23 c37 26 46 38 29
38 -7 0 -25 3 -42 6 -20 4 -42 0 -67 -14z"/>
<path d="M1910 4130 c0 -5 7 -10 16 -10 8 0 12 5 9 10 -3 6 -10 10 -16 10 -5
0 -9 -4 -9 -10z"/>
<path d="M1430 4120 c0 -5 5 -10 11 -10 5 0 7 5 4 10 -3 6 -8 10 -11 10 -2 0
-4 -4 -4 -10z"/>
<path d="M2220 4071 c0 -5 7 -14 15 -21 16 -14 18 -10 9 14 -6 17 -24 22 -24
7z"/>
<path d="M1460 3952 c0 -4 4 -13 9 -20 7 -11 9 -11 14 1 3 9 -1 18 -9 21 -8 3
-14 2 -14 -2z"/>
<path d="M1760 3935 c0 -8 7 -15 16 -15 14 0 14 3 4 15 -7 8 -14 15 -16 15 -2
0 -4 -7 -4 -15z"/>
<path d="M1715 3910 c-3 -6 -3 -20 0 -31 7 -20 8 -20 21 6 8 15 14 29 14 31 0
9 -29 3 -35 -6z"/>
<path d="M1852 3885 c0 -16 2 -22 5 -12 2 9 2 23 0 30 -3 6 -5 -1 -5 -18z"/>
<path d="M1577 3883 c-4 -3 -7 -11 -7 -17 0 -6 5 -5 12 2 6 6 9 14 7 17 -3 3
-9 2 -12 -2z"/>
<path d="M1430 3856 c0 -9 7 -16 16 -16 9 0 14 5 12 12 -6 18 -28 21 -28 4z"/>
<path d="M1792 3808 c-4 -18 -13 -33 -19 -33 -23 0 -26 -16 -5 -35 24 -23 27
-18 36 58 6 50 0 55 -12 10z"/>
<path d="M2456 3795 c8 -37 14 -45 14 -19 0 10 -5 26 -10 34 -8 11 -9 7 -4
-15z"/>
<path d="M1626 3775 c-3 -8 -1 -15 4 -15 6 0 10 7 10 15 0 8 -2 15 -4 15 -2 0
-6 -7 -10 -15z"/>
<path d="M1973 3757 c-12 -7 -31 -24 -43 -39 -12 -16 -27 -28 -35 -28 -7 0
-18 -7 -25 -15 -7 -8 -16 -13 -20 -10 -8 5 -32 -20 -44 -45 -4 -8 1 -5 12 8
29 32 56 30 49 -5 -10 -51 18 -72 46 -33 7 10 33 27 56 38 36 15 46 25 61 65
10 26 14 50 9 53 -5 3 -9 0 -9 -7 0 -6 -8 -2 -17 10 -15 17 -21 18 -40 8z"/>
<path d="M2395 3690 c-36 -49 -37 -51 -19 -71 10 -11 23 -18 30 -15 13 5 24
-15 24 -45 0 -10 6 -19 13 -20 6 0 3 -4 -8 -9 -11 -5 -14 -9 -7 -9 7 -1 10 -6
7 -12 -5 -6 9 -9 39 -8 35 2 45 6 41 17 -3 7 -5 22 -5 33 0 11 -7 19 -16 19
-8 0 -13 -4 -9 -9 7 -13 -12 -24 -26 -16 -7 5 -4 15 9 29 16 18 20 42 13 76
-1 3 -8 -4 -16 -14 -9 -12 -15 -15 -15 -7 0 11 -3 11 -15 1 -13 -11 -15 -9
-15 13 0 13 7 41 15 61 22 51 3 45 -40 -14z"/>
<path d="M2047 3676 c-4 -10 -5 -21 -2 -24 9 -9 17 6 13 25 -3 17 -4 17 -11
-1z"/>
<path d="M1425 3670 c-3 -5 -2 -10 4 -10 5 0 13 5 16 10 3 6 2 10 -4 10 -5 0
-13 -4 -16 -10z"/>
<path d="M2037 3585 c-4 -8 -2 -17 3 -20 6 -4 10 3 10 14 0 25 -6 27 -13 6z"/>
<path d="M2655 3540 c3 -5 8 -10 11 -10 2 0 4 5 4 10 0 6 -5 10 -11 10 -5 0
-7 -4 -4 -10z"/>
<path d="M3503 4003 c-7 -2 -13 -11 -13 -19 0 -8 6 -15 13 -16 6 0 17 -2 22
-2 14 -2 89 -48 93 -58 2 -5 8 -6 13 -2 12 7 -6 41 -39 77 -24 25 -58 33 -89
20z"/>
<path d="M3445 3880 c9 -16 18 -30 21 -30 2 0 -2 14 -11 30 -9 17 -18 30 -21
30 -2 0 2 -13 11 -30z"/>
<path d="M3490 3871 c0 -6 4 -13 10 -16 6 -3 7 1 4 9 -7 18 -14 21 -14 7z"/>
<path d="M4123 3405 c13 -27 27 -33 27 -12 0 14 -19 37 -31 37 -4 0 -2 -11 4
-25z"/>
<path d="M4160 3426 c0 -2 7 -9 15 -16 9 -7 15 -8 15 -2 0 5 -7 12 -15 16 -8
3 -15 4 -15 2z"/>
<path d="M3785 3380 c-3 -5 -1 -10 4 -10 6 0 11 5 11 10 0 6 -2 10 -4 10 -3 0
-8 -4 -11 -10z"/>
<path d="M3965 3350 c-3 -5 -1 -10 4 -10 6 0 11 5 11 10 0 6 -2 10 -4 10 -3 0
-8 -4 -11 -10z"/>
<path d="M2056 3081 c-4 -7 -5 -15 -2 -18 9 -9 19 4 14 18 -4 11 -6 11 -12 0z"/>
<path d="M1910 3050 c0 -5 5 -10 11 -10 5 0 7 5 4 10 -3 6 -8 10 -11 10 -2 0
-4 -4 -4 -10z"/>
<path d="M2412 3028 c-6 -13 -12 -32 -14 -43 -2 -13 -11 -20 -25 -20 -12 0
-30 -8 -39 -17 -16 -16 -16 -16 2 -14 25 4 39 -4 24 -14 -7 -4 -8 -10 -3 -13
5 -3 24 13 42 36 22 28 31 34 26 20 -5 -18 -3 -22 9 -17 8 3 17 11 19 18 8 20
-9 40 -28 32 -13 -5 -15 -3 -8 6 15 19 23 48 14 48 -4 0 -13 -10 -19 -22z"/>
<path d="M2180 3018 c0 -12 3 -18 7 -14 11 10 12 36 2 36 -5 0 -9 -10 -9 -22z"/>
<path d="M1835 3020 c3 -5 8 -10 11 -10 2 0 4 5 4 10 0 6 -5 10 -11 10 -5 0
-7 -4 -4 -10z"/>
<path d="M2120 3016 c0 -8 7 -16 15 -20 13 -4 14 -2 5 14 -13 23 -20 26 -20 6z"/>
<path d="M2007 2985 c-4 -8 -2 -17 3 -20 6 -4 10 -1 10 4 0 6 9 11 21 11 11 0
17 5 14 10 -9 15 -42 12 -48 -5z"/>
<path d="M1732 2964 c-14 -15 -7 -17 22 -5 15 6 16 9 5 13 -8 3 -20 -1 -27 -8z"/>
<path d="M2077 2968 c-3 -8 -2 -21 3 -27 11 -19 23 5 12 25 -8 14 -10 14 -15
2z"/>
<path d="M1900 2962 c0 -4 10 -13 23 -21 22 -14 22 -14 3 8 -20 22 -26 25 -26
13z"/>
<path d="M2247 2963 c-4 -3 -7 -11 -7 -17 0 -6 5 -5 12 2 6 6 9 14 7 17 -3 3
-9 2 -12 -2z"/>
<path d="M2124 2917 c3 -12 5 -24 5 -27 2 -6 21 23 21 31 0 4 -7 9 -15 13 -11
4 -14 0 -11 -17z"/>
<path d="M2440 2929 c0 -5 5 -7 10 -4 6 3 10 8 10 11 0 2 -4 4 -10 4 -5 0 -10
-5 -10 -11z"/>
<path d="M2527 2933 c-4 -3 -7 -11 -7 -16 0 -6 3 -7 7 -4 3 4 13 1 22 -6 14
-11 15 -10 1 8 -8 11 -15 21 -16 23 0 1 -4 -1 -7 -5z"/>
<path d="M2269 2900 c-1 -16 -2 -36 -3 -42 -1 -7 6 -13 14 -13 8 0 17 -3 20
-7 3 -3 10 4 17 18 10 21 8 26 -8 34 -10 6 -19 17 -19 25 0 29 -20 15 -21 -15z"/>
<path d="M1871 2894 c0 -11 3 -14 6 -6 3 7 2 16 -1 19 -3 4 -6 -2 -5 -13z"/>
<path d="M2208 2883 c7 -3 16 -2 19 1 4 3 -2 6 -13 5 -11 0 -14 -3 -6 -6z"/>
<path d="M1935 2840 c-3 -5 -1 -10 4 -10 6 0 11 5 11 10 0 6 -2 10 -4 10 -3 0
-8 -4 -11 -10z"/>
<path d="M2233 2813 c-6 -24 -7 -43 -2 -43 11 0 22 43 17 67 -2 11 -8 2 -15
-24z"/>
<path d="M2670 2820 c0 -5 5 -10 10 -10 6 0 10 5 10 10 0 6 -4 10 -10 10 -5 0
-10 -4 -10 -10z"/>
<path d="M2345 2770 c-3 -5 -1 -10 4 -10 6 0 11 5 11 10 0 6 -2 10 -4 10 -3 0
-8 -4 -11 -10z"/>
<path d="M2348 1839 c6 -7 12 -17 12 -22 0 -4 -6 -5 -12 -1 -7 4 -5 -2 6 -14
19 -22 37 -21 35 1 0 9 -2 8 -6 -1 -2 -6 -9 -9 -14 -6 -6 4 -6 11 1 19 9 11 6
16 -12 26 -19 9 -21 9 -10 -2z"/>
<path d="M3427 2961 c-2 -10 -1 -25 4 -32 5 -8 9 -12 10 -9 6 39 6 60 -1 60
-4 0 -10 -9 -13 -19z"/>
<path d="M3385 2899 c-4 -6 -5 -12 -2 -15 2 -3 7 2 10 11 7 17 1 20 -8 4z"/>
<path d="M3411 2854 c0 -11 3 -14 6 -6 3 7 2 16 -1 19 -3 4 -6 -2 -5 -13z"/>
<path d="M3416 2782 c-3 -6 -1 -14 5 -17 14 -9 20 -2 10 14 -6 8 -11 9 -15 3z"/>
<path d="M3473 2738 c-1 -11 1 -16 5 -12 4 5 11 12 15 15 5 3 2 9 -5 12 -9 3
-14 -3 -15 -15z"/>
<path d="M3060 2737 c0 -28 6 -32 28 -19 9 7 8 13 -8 27 -20 18 -20 18 -20 -8z"/>
<path d="M4135 2385 c17 -7 32 -11 35 -9 7 8 -24 24 -45 23 -15 0 -13 -4 10
-14z"/>
<path d="M3750 2190 c-12 -8 -11 -10 8 -10 12 0 22 5 22 10 0 13 -11 13 -30 0z"/>
<path d="M4527 2101 c3 -12 9 -21 13 -21 12 0 5 33 -8 38 -6 2 -8 -5 -5 -17z"/>
<path d="M4300 2101 c0 -5 7 -11 15 -15 8 -3 15 -1 15 3 0 5 -7 11 -15 15 -8
3 -15 1 -15 -3z"/>
<path d="M4720 2089 c0 -11 4 -18 10 -14 5 3 7 12 3 20 -7 21 -13 19 -13 -6z"/>
<path d="M3365 2030 c3 -5 12 -7 20 -3 21 7 19 13 -6 13 -11 0 -18 -4 -14 -10z"/>
<path d="M3275 1840 c-4 -6 -12 -7 -18 -4 -7 4 -9 3 -4 -1 4 -5 16 -10 27 -12
14 -2 18 2 14 12 -7 18 -11 19 -19 5z"/>
<path d="M3887 1784 c3 -7 9 -14 14 -14 14 0 10 17 -5 23 -10 4 -13 1 -9 -9z"/>
<path d="M3914 1713 c-13 -20 -13 -25 -2 -16 8 7 18 10 22 6 4 -4 4 1 0 12 -6
16 -5 18 7 8 19 -18 33 -16 15 2 -19 20 -21 19 -42 -12z"/>
<path d="M4655 1830 c3 -5 16 -10 27 -10 26 0 16 13 -13 17 -12 2 -18 -1 -14
-7z"/>
<path d="M2405 1640 c3 -5 8 -10 11 -10 2 0 4 5 4 10 0 6 -5 10 -11 10 -5 0
-7 -4 -4 -10z"/>
<path d="M2421 1621 c-8 -5 -9 -11 -3 -15 5 -3 12 1 16 9 6 17 6 18 -13 6z"/>
<path d="M685 960 c-16 -7 -17 -9 -3 -9 9 -1 20 4 23 9 7 11 7 11 -20 0z"/>
<path d="M980 890 c-12 -8 -9 -10 13 -10 16 0 26 4 22 10 -8 12 -16 12 -35 0z"/>
<path d="M560 880 c0 -5 5 -10 10 -10 6 0 10 5 10 10 0 6 -4 10 -10 10 -5 0
-10 -4 -10 -10z"/>
<path d="M655 870 c-8 -13 5 -13 25 0 13 8 13 10 -2 10 -9 0 -20 -4 -23 -10z"/>
<path d="M708 873 c7 -3 16 -2 19 1 4 3 -2 6 -13 5 -11 0 -14 -3 -6 -6z"/>
<path d="M618 863 c7 -3 16 -2 19 1 4 3 -2 6 -13 5 -11 0 -14 -3 -6 -6z"/>
<path d="M960 860 c0 -5 5 -10 11 -10 5 0 7 5 4 10 -3 6 -8 10 -11 10 -2 0 -4
-4 -4 -10z"/>
<path d="M480 839 c0 -5 5 -7 10 -4 6 3 10 8 10 11 0 2 -4 4 -10 4 -5 0 -10
-5 -10 -11z"/>
<path d="M525 843 c11 -3 24 -9 30 -14 13 -13 25 -11 25 4 0 9 -13 14 -37 14
-21 0 -29 -2 -18 -4z"/>
<path d="M600 835 c-9 -10 -9 -15 -1 -15 6 0 11 6 11 13 0 8 4 7 10 -3 6 -9
10 -10 10 -3 0 19 -17 24 -30 8z"/>
<path d="M640 840 c0 -5 5 -10 11 -10 5 0 7 5 4 10 -3 6 -8 10 -11 10 -2 0 -4
-4 -4 -10z"/>
<path d="M682 835 c-11 -12 -10 -15 3 -15 8 0 15 7 15 15 0 18 -2 18 -18 0z"/>
<path d="M726 835 c-3 -8 -1 -15 4 -15 6 0 10 7 10 15 0 8 -2 15 -4 15 -2 0
-6 -7 -10 -15z"/>
<path d="M920 830 c-8 -5 -12 -11 -9 -14 2 -3 11 -1 19 4 8 5 12 11 9 14 -2 3
-11 1 -19 -4z"/>
<path d="M608 793 c-21 -2 -38 -8 -38 -13 0 -10 81 -1 95 11 5 6 3 8 -5 7 -8
-1 -32 -3 -52 -5z"/>
<path d="M738 793 c12 -2 30 -2 40 0 9 3 -1 5 -23 4 -22 0 -30 -2 -17 -4z"/>
<path d="M830 784 c0 -21 -15 -24 -140 -24 -51 -1 -70 -4 -60 -10 13 -8 12
-10 -3 -10 -10 0 -16 -4 -12 -10 3 -5 15 -6 28 -1 39 14 159 14 168 -1 7 -10
9 -9 9 5 0 20 16 23 23 5 3 -8 6 -5 6 5 1 10 6 15 11 12 6 -4 10 6 9 22 0 15
-3 22 -6 15 -4 -10 -8 -10 -19 -1 -11 9 -14 8 -14 -7z"/>
<path d="M908 782 c-49 -6 -27 -60 22 -58 35 1 58 36 24 36 -8 0 -12 -4 -9
-10 3 -5 -3 -10 -14 -10 -11 0 -23 5 -26 10 -3 6 1 10 9 10 9 0 16 4 16 9 0 6
12 6 32 1 18 -6 36 -6 42 -1 6 5 25 11 41 13 17 3 -1 4 -40 4 -38 0 -82 -2
-97 -4z"/>
<path d="M543 738 c-13 -23 -13 -40 1 -29 7 6 16 8 19 4 4 -3 7 1 7 10 0 10 5
17 10 17 6 0 10 -7 10 -15 0 -8 4 -15 9 -15 5 0 7 9 4 20 -6 23 -47 28 -60 8z"/>
<path d="M974 739 c-9 -15 -2 -18 20 -9 17 6 18 7 3 13 -9 3 -19 2 -23 -4z"/>
<path d="M1308 713 c7 -3 16 -2 19 1 4 3 -2 6 -13 5 -11 0 -14 -3 -6 -6z"/>
<path d="M1355 710 c-3 -6 1 -7 9 -4 18 7 21 14 7 14 -6 0 -13 -4 -16 -10z"/>
<path d="M2789 5419 c-10 -6 -4 -9 19 -9 17 0 32 2 32 4 0 9 -39 13 -51 5z"/>
<path d="M3020 5410 c-12 -8 -9 -10 13 -10 16 0 26 4 22 10 -8 12 -16 12 -35
0z"/>
<path d="M6116 3223 c-6 -14 -5 -15 5 -6 7 7 10 15 7 18 -3 3 -9 -2 -12 -12z"/>
<path d="M5945 3119 c-16 -16 -25 -29 -19 -29 13 0 54 38 54 50 0 13 0 13 -35
-21z"/>
<path d="M5950 3090 c0 -5 5 -10 11 -10 5 0 7 5 4 10 -3 6 -8 10 -11 10 -2 0
-4 -4 -4 -10z"/>
<path d="M945 2980 c9 -15 45 -32 45 -22 0 5 -12 14 -26 20 -14 7 -23 8 -19 2z"/>
<path d="M1020 2945 c0 -5 5 -17 10 -25 5 -8 10 -10 10 -5 0 6 -5 17 -10 25
-5 8 -10 11 -10 5z"/>
<path d="M760 2681 c0 -12 56 -71 67 -71 5 0 10 7 10 15 0 8 -4 12 -8 9 -4 -2
-17 9 -29 26 -21 29 -40 39 -40 21z"/>
<path d="M660 2650 c0 -8 60 -23 67 -17 1 2 -13 8 -32 14 -19 6 -35 8 -35 3z"/>
<path d="M858 2593 c6 -2 9 -10 6 -15 -5 -7 -2 -8 5 -3 8 4 27 -6 49 -26 20
-19 30 -25 22 -14 -27 36 -63 65 -79 64 -10 0 -12 -2 -3 -6z"/>
<path d="M15 2550 c3 -5 8 -10 11 -10 2 0 4 5 4 10 0 6 -5 10 -11 10 -5 0 -7
-4 -4 -10z"/>
<path d="M66 2535 c4 -8 13 -15 21 -15 12 0 12 2 -1 15 -8 8 -17 15 -20 15 -3
0 -3 -7 0 -15z"/>
<path d="M2048 2348 c12 -6 22 -14 22 -18 0 -4 14 -7 30 -7 17 0 30 2 30 3 0
9 -62 34 -82 33 l-23 0 23 -11z"/>
<path d="M1670 2290 c0 -5 6 -10 13 -10 19 0 95 -67 102 -90 4 -11 11 -20 16
-20 19 0 8 22 -29 59 -41 41 -102 78 -102 61z"/>
<path d="M2090 2278 c0 -7 4 -19 9 -27 11 -17 23 1 15 23 -7 19 -24 21 -24 4z"/>
<path d="M680 2252 c0 -4 8 -19 17 -32 20 -29 25 -113 6 -106 -17 7 -74 -17
-70 -29 2 -5 16 -11 30 -13 15 -2 27 -8 27 -13 0 -5 11 -9 24 -9 14 0 27 -4
30 -9 3 -5 20 -11 37 -13 25 -4 33 0 42 19 5 12 16 23 24 23 7 0 13 4 13 10 0
12 -127 140 -139 140 -5 0 -11 9 -14 20 -5 19 -27 29 -27 12z m79 -128 c3 -16
1 -17 -13 -5 -19 16 -21 34 -3 29 6 -3 14 -13 16 -24z"/>
<path d="M2340 2151 c0 -5 7 -11 15 -15 8 -3 15 -1 15 3 0 5 -7 11 -15 15 -8
3 -15 1 -15 -3z"/>
<path d="M1280 2136 c0 -6 -3 -22 -7 -35 -4 -17 -3 -22 5 -17 7 4 12 1 12 -7
0 -8 -7 -17 -15 -21 -8 -3 -15 -14 -15 -25 0 -11 -6 -21 -12 -24 -7 -2 -10 -8
-6 -12 10 -10 70 54 69 74 0 9 -1 30 -2 47 0 19 -6 31 -15 31 -8 0 -14 -5 -14
-11z"/>
<path d="M590 2090 c0 -5 7 -10 15 -10 8 0 15 5 15 10 0 6 -7 10 -15 10 -8 0
-15 -4 -15 -10z"/>
<path d="M1226 1964 c-5 -14 -4 -15 9 -4 17 14 19 20 6 20 -5 0 -12 -7 -15
-16z"/>
<path d="M0 1850 c0 -14 35 -55 97 -116 102 -99 148 -129 69 -44 -34 36 -46
56 -41 69 3 11 1 22 -5 26 -6 3 -8 10 -5 14 2 5 -22 23 -55 40 -58 31 -60 31
-60 11z"/>
<path d="M299 1543 c19 -18 39 -33 45 -33 6 0 -1 7 -14 17 -14 9 -34 23 -46
32 -11 9 -5 1 15 -16z"/>
<path d="M1898 1543 c12 -2 30 -2 40 0 9 3 -1 5 -23 4 -22 0 -30 -2 -17 -4z"/>
<path d="M2358 1523 c6 -2 18 -2 25 0 6 3 1 5 -13 5 -14 0 -19 -2 -12 -5z"/>
<path d="M380 1486 c0 -2 7 -7 16 -10 8 -3 12 -2 9 4 -6 10 -25 14 -25 6z"/>
<path d="M2029 1389 c-16 -9 -12 -14 17 -23 14 -4 24 -2 27 8 7 17 -24 28 -44
15z"/>
<path d="M2090 1379 c0 -6 25 -19 36 -19 2 0 4 6 4 13 0 7 -9 13 -20 13 -11 0
-20 -3 -20 -7z"/>
<path d="M610 1365 c14 -8 30 -14 35 -14 6 0 -1 6 -15 14 -14 8 -29 14 -35 14
-5 0 1 -6 15 -14z"/>
<path d="M2140 1329 c0 -5 5 -7 10 -4 6 3 10 8 10 11 0 2 -4 4 -10 4 -5 0 -10
-5 -10 -11z"/>
<path d="M2196 1315 c4 -11 0 -15 -16 -15 -16 0 -20 -4 -16 -16 3 -9 6 -20 6
-25 0 -5 6 -4 14 3 8 7 12 16 10 19 -2 4 3 12 11 19 15 12 12 30 -5 30 -5 0
-7 -7 -4 -15z"/>
<path d="M1940 1309 c0 -5 4 -8 9 -5 5 3 11 -1 15 -9 3 -8 16 -15 30 -15 19 0
23 4 19 20 -4 15 -14 20 -39 20 -19 0 -34 -5 -34 -11z"/>
<path d="M2020 1309 c0 -13 49 -43 57 -35 4 4 -3 9 -16 13 -14 4 -19 8 -11 13
8 5 4 9 -9 13 -12 3 -21 1 -21 -4z"/>
<path d="M1709 1261 c7 -5 10 -14 7 -20 -8 -12 7 -13 44 -1 17 5 19 8 8 9 -10
1 -18 6 -18 11 0 6 -12 10 -27 10 -20 0 -24 -3 -14 -9z"/>
<path d="M1835 1246 c0 -18 3 -22 13 -14 9 8 9 14 1 24 -15 18 -14 18 -14 -10z"/>
<path d="M1898 1263 c7 -3 16 -2 19 1 4 3 -2 6 -13 5 -11 0 -14 -3 -6 -6z"/>
<path d="M1650 1240 c-13 -8 -12 -10 3 -10 9 0 17 5 17 10 0 12 -1 12 -20 0z"/>
<path d="M50 1060 c13 -9 13 -10 0 -11 -8 -1 -23 -1 -33 0 -9 1 -17 -3 -17 -8
0 -12 12 -13 208 -12 73 0 139 4 145 8 7 4 6 0 -2 -10 -13 -16 -11 -16 22 -2
42 17 71 20 47 5 -8 -5 -10 -10 -4 -10 6 0 14 3 18 7 3 4 12 8 19 9 7 1 19 3
27 5 9 3 14 -2 12 -11 -2 -12 0 -12 11 1 7 9 21 19 32 21 11 2 -11 4 -50 5
-38 1 -76 -4 -82 -9 -9 -7 -13 -7 -13 1 0 7 -4 9 -10 6 -16 -10 -200 -13 -200
-3 0 4 -5 8 -11 8 -5 0 -7 -5 -3 -11 4 -7 -1 -7 -16 1 -14 7 -20 8 -16 1 9
-13 -53 -6 -67 8 -6 6 -16 11 -21 11 -6 0 -4 -5 4 -10z"/>
<path d="M250 1060 c0 -5 4 -10 9 -10 6 0 13 5 16 10 3 6 -1 10 -9 10 -9 0
-16 -4 -16 -10z"/>
</g>
</svg>
