<?xml version="1.0" standalone="no"?>
<!DOCTYPE svg PUBLIC "-//W3C//DTD SVG 20010904//EN"
 "http://www.w3.org/TR/2001/REC-SVG-20010904/DTD/svg10.dtd">
<svg version="1.0" xmlns="http://www.w3.org/2000/svg"
 width="256.000000pt" height="256.000000pt" viewBox="0 0 256.000000 256.000000"
 preserveAspectRatio="xMidYMid meet">
<metadata>
Created by potrace 1.14, written by Peter Selinger 2001-2017
</metadata>
<g transform="translate(0.000000,256.000000) scale(0.100000,-0.100000)"
fill="#000000" stroke="none">
<path d="M601 2498 c-37 -10 -81 -61 -82 -96 0 -15 -1 -67 -1 -117 l-1 -90
-127 -5 c-121 -5 -128 -6 -164 -34 -70 -53 -68 -27 -68 -747 0 -583 2 -650 17
-682 20 -43 40 -62 85 -80 28 -11 109 -14 400 -13 201 1 368 -2 371 -7 10 -13
-11 -146 -32 -201 -39 -106 -79 -134 -190 -137 -80 -2 -124 -15 -152 -46 -38
-43 -34 -153 6 -175 33 -18 1191 -20 1228 -2 44 22 53 102 18 164 -26 45 -66
60 -161 59 -67 -1 -109 13 -139 47 -42 48 -71 140 -82 257 -2 28 1 37 13 38 8
0 179 1 380 3 322 1 369 4 397 19 34 18 66 57 78 95 12 41 8 1297 -4 1335 -13
39 -54 81 -94 96 -16 6 -79 11 -141 11 l-112 0 -1 115 c-1 125 -9 149 -60 182
-25 16 -76 18 -689 18 -365 0 -676 -3 -693 -7z m113 -127 c26 -29 13 -61 -24
-61 -24 0 -31 5 -36 27 -5 19 -2 30 11 40 24 17 29 17 49 -6z m180 0 c30 -33
-7 -79 -46 -59 -33 16 -15 76 23 78 3 0 14 -9 23 -19z m170 6 c28 -20 18 -61
-16 -65 -37 -4 -57 31 -32 59 20 23 25 23 48 6z m836 -16 c7 -15 6 -23 -6 -35
-13 -13 -46 -16 -204 -16 -181 0 -190 1 -200 21 -24 44 -4 49 206 49 181 0
194 -1 204 -19z m91 -240 c0 -36 0 -243 0 -460 0 -381 -1 -395 -20 -414 -19
-20 -34 -20 -691 -20 -655 0 -672 0 -691 20 -19 19 -20 34 -20 449 0 236 0
443 1 460 l0 32 710 0 710 0 1 -67z m-1474 -469 c0 -410 1 -415 55 -455 26
-20 43 -20 706 -21 624 0 682 2 706 17 60 40 59 32 58 452 l0 385 99 0 c96 0
99 -1 100 -22 3 -172 0 -1081 -5 -1085 -10 -10 -1907 -9 -1913 0 -4 7 -7 918
-4 1080 l1 27 99 0 98 0 0 -378z m949 -1021 c5 -1 11 -20 12 -43 6 -100 34
-198 73 -255 l28 -43 -47 -1 c-51 0 -545 0 -550 1 -2 0 6 12 18 28 41 52 78
170 81 260 2 37 6 52 17 54 13 3 336 1 368 -1z"/>
<path d="M1326 1973 c-4 -16 -13 -50 -21 -78 -55 -191 -123 -460 -118 -472 9
-24 35 -10 49 27 23 63 144 533 138 541 -12 20 -42 8 -48 -18z"/>
<path d="M953 1818 c-64 -66 -99 -108 -96 -118 9 -25 203 -212 216 -207 30 10
12 40 -67 121 -48 48 -86 90 -86 94 0 3 39 46 86 93 60 60 85 92 81 103 -4 9
-12 16 -19 16 -8 0 -59 -46 -115 -102z"/>
<path d="M1473 1904 c-4 -11 21 -43 81 -103 47 -47 86 -90 86 -94 0 -4 -39
-46 -86 -92 -81 -81 -98 -112 -67 -122 11 -4 174 150 212 200 13 17 5 28 -90
123 -57 57 -109 104 -117 104 -7 0 -15 -7 -19 -16z"/>
</g>
</svg>
